<?xml version="1.0" encoding="utf-8"?>
<!-- Generator: Adobe Illustrator 17.0.0, SVG Export Plug-In . SVG Version: 6.00 Build 0)  -->
<!DOCTYPE svg PUBLIC "-//W3C//DTD SVG 1.1//EN" "http://www.w3.org/Graphics/SVG/1.1/DTD/svg11.dtd">
<svg version="1.1" id="Layer_1" xmlns="http://www.w3.org/2000/svg" xmlns:xlink="http://www.w3.org/1999/xlink" x="0px" y="0px"
	 width="1600px" height="1200px" viewBox="0 0 1600 1200" enable-background="new 0 0 1600 1200" xml:space="preserve">
<title>Atom icon</title>
<path fill="#FFFFFF" d="M1224.8,451.3c-109.15-46.5-255.8-76.5-412.5-84.75c-25-1.5-49.35-2-72.5-2
	c115.9-141.5,240.1-236.5,321.85-239.5c16.1-0.65,29.75,2.75,40.65,9.8c35.3,22.9,45.25,88.4,27.25,179.5c-2,12.5,6,24.65,18,27
	c12.5,2.5,24.5-5.5,27-18c22.5-114,6-192.3-47-226.9c-19-12.4-42-18.25-67.5-17.3c-102.5,3.85-247,115-379.5,286
	c-57.7,1.75-112,6.5-161.6,14.35c-32.3-144.85-19.5-248.85,29.7-273.85c6.9-3.65,14.25-5.5,22.85-6.2c34.85-2.7,83,19.75,135.5,63.5
	c9.7,8,24.3,7,32.3-3c8.15-9.75,6.7-24-3-32.25c-63-52.2-121.1-77.7-168.6-74.2c-14.3,1.25-27.8,4.9-40.15,11
	c-59.5,30.35-83.5,116.35-68.5,241.9c3.5,26,8,53.1,14.5,81C309.5,420.2,205,485.9,200.5,568.6c-3,58.5,43.25,114.2,134,161.1
	c11.2,5.75,25.1,1.5,31-10c5.7-11.2,1.5-25-10-30.8C283,651.6,244,609.5,246.35,571c2.5-54,88.6-109.5,238-139
	c13.5,49.7,31,101.6,52.5,154.5c-50.9,94.4-87.8,187.35-106.85,270c-28,123.25-13,211,43,247.4c18,11.7,39,17.5,62.35,17.5
	c46.75,0,103.35-23,167.35-68.6c10.5-7.5,12.8-21.75,5.5-32c-7.35-10.3-21.65-12.8-32-5.3c-77.2,55.15-142.2,73.6-178.1,50.15
	c-38-24.75-46.3-97.15-23-198.8c16-69.3,45.35-146.5,85.4-226c10,21.9,20.5,43.8,31.5,65.65c71.25,139.8,158.5,261.35,245.5,342.25
	c69.3,64.5,133.7,98.15,186.75,98.15c17.5,0,34-3.75,48.8-11.15c57.25-29.25,82-110.5,69.9-228.75c-11.2-110.65-53-245.5-117.7-380
	c-5.5-11.35-19.2-16.15-30.5-10.8c-11.5,5.5-16.5,19.25-11,30.6c134.5,280.1,144,509.5,68.5,548c-79.5,40.65-271.2-117.75-419.5-409
	c-17-32.75-31.85-65-45-96.5c17-30.4,35-61,54.75-91.5c19.75-30.2,40.3-59.4,61.2-87.25h19.7c27,0,56.3,0.5,86.7,2.4
	c326.5,17.15,548.75,128,544.2,216.7c-2,38.25-46.2,76.9-121.25,106c-11.7,4.8-17.6,18-13,29.8c3.5,9,12,14.6,21.3,14.6
	c2.9,0,5.7-0.5,8.35-1.5c95.25-37,147.5-87.8,150.5-146.5c3.5-66.5-58.5-130.5-175-180v-0.5L1224.8,451.3z M604,472.5
	c-13.5,20.75-26,41.35-38.2,62.2c-14.6-38.4-26.6-75.5-36.15-110.75c35.65-5.5,74.25-9.5,115.5-12c-14,19.5-27.7,39.7-41,60.5v-0.5
	L604,472.5z M800.25,531.25c-37.97,0-68.75,30.78-68.75,68.75s30.78,68.75,68.75,68.75S869,637.97,869,600
	S838.22,531.25,800.25,531.25z"/>
</svg>
