<?xml version="1.0" encoding="utf-8"?>
<!-- Generator: Adobe Illustrator 17.0.0, SVG Export Plug-In . SVG Version: 6.00 Build 0)  -->
<!DOCTYPE svg PUBLIC "-//W3C//DTD SVG 1.1//EN" "http://www.w3.org/Graphics/SVG/1.1/DTD/svg11.dtd">
<svg version="1.1" id="Layer_1" xmlns="http://www.w3.org/2000/svg" xmlns:xlink="http://www.w3.org/1999/xlink" x="0px" y="0px"
	 width="1600px" height="1200px" viewBox="0 0 1600 1200" enable-background="new 0 0 1600 1200" xml:space="preserve">
<title>GitHub icon</title>
<path fill="#FFFFFF" d="M800,14.85c-331.5,0-600,268.65-600,600c0,265.15,171.9,490,410.25,569.25c30,5.65,41-12.9,41-28.85
	c0-14.25-0.5-52-0.75-102c-166.9,36.2-202.1-80.5-202.1-80.5C421.1,903.5,381.65,885,381.65,885c-54.35-37.2,4.2-36.45,4.2-36.45
	c60.25,4.2,91.9,61.8,91.9,61.8c53.5,91.75,140.45,65.25,174.75,49.9c5.4-38.8,20.85-65.25,38-80.25
	c-133.25-15-273.3-66.6-273.3-296.5c0-65.5,23.25-119,61.75-161c-6.75-15.15-27-76.15,5.25-158.8c0,0,50.25-16.1,165,61.5
	c48-13.35,99-19.95,150-20.25c51,0.3,102,6.9,150,20.25c114-77.6,164.25-61.5,164.25-61.5c32.25,82.65,12,143.65,6,158.8
	c38.25,42,61.5,95.5,61.5,161c0,230.5-140.25,281.25-273.75,296c21,18,40.5,54.8,40.5,111c0,80.3-0.75,144.8-0.75,164.3
	c0,15.75,10.5,34.5,41.25,28.5c240.05-78.7,411.8-303.7,411.8-568.45C1400,283.5,1131.35,14.85,800,14.85"/>
</svg>
