<?xml version="1.0" encoding="utf-8"?>
<!-- Generator: Adobe Illustrator 17.0.0, SVG Export Plug-In . SVG Version: 6.00 Build 0)  -->
<!DOCTYPE svg PUBLIC "-//W3C//DTD SVG 1.1//EN" "http://www.w3.org/Graphics/SVG/1.1/DTD/svg11.dtd">
<svg version="1.1" id="Layer_1" xmlns="http://www.w3.org/2000/svg" xmlns:xlink="http://www.w3.org/1999/xlink" x="0px" y="0px"
	 width="1600px" height="1200px" viewBox="0 0 1600 1200" enable-background="new 0 0 1600 1200" xml:space="preserve">
<title>Medium icon</title>
<path fill="#FFFFFF" d="M200,0v1200h1200V0H200z M1196.9,284.3l-64.35,61.7c-5.563,4.234-8.318,11.207-7.15,18.1v453.35
	c-1.148,6.877,1.604,13.825,7.15,18.05l62.85,61.7v13.55H879.3v-13.5L944.4,834c6.4-6.4,6.4-8.25,6.4-18V449.5l-181,459.75h-24.5
	L534.5,449.5v308.15c-1.757,12.948,2.539,25.984,11.65,35.35l84.7,102.7v13.55h-240.1v-13.5L475.5,793
	c9.045-9.382,13.091-22.504,10.9-35.35v-356.3c1.012-9.899-2.758-19.688-10.15-26.35l-75.3-90.7v-13.5h233.7L815.3,666.95
	l158.8-396.2h222.8V284.3z"/>
</svg>
