<?xml version="1.0" encoding="utf-8"?>
<!-- Generator: Adobe Illustrator 17.0.0, SVG Export Plug-In . SVG Version: 6.00 Build 0)  -->
<!DOCTYPE svg PUBLIC "-//W3C//DTD SVG 1.1//EN" "http://www.w3.org/Graphics/SVG/1.1/DTD/svg11.dtd">
<svg version="1.1" id="Layer_1" xmlns="http://www.w3.org/2000/svg" xmlns:xlink="http://www.w3.org/1999/xlink" x="0px" y="0px"
	 width="1600px" height="1200px" viewBox="0 0 1600 1200" enable-background="new 0 0 1600 1200" xml:space="preserve">
<title>Messenger icon</title>
<path fill="#FFFFFF" d="M200,582C200,247.5,462,0,800,0s600,247.5,600,582s-262,582-600,582c-60.5,0-119-8-173.5-23
	c-10.638-2.863-21.936-1.981-32,2.5L475,1196c-24.219,10.78-52.591-0.114-63.371-24.333c-2.55-5.728-3.952-11.9-4.129-18.167
	l-3.5-107c-0.548-13.023-6.315-25.277-16-34C266.312,902.734,197.807,745.866,200,582z M616,472.5l-176,280
	c-17.5,26.5,16,57,41,37.5l189.5-143.5c13-10,30-10,43.5,0l140,105c42,31.5,102,20,130-24l176-280c17.5-26.5-16-56.5-41-37.5
	L929.5,553.5c-12.5,10-30,10-43,0l-140-105c-39.661-29.962-96.1-22.099-126.062,17.562C618.866,468.142,617.385,470.291,616,472.5
	L616,472.5z"/>
</svg>
