<?xml version="1.0" encoding="utf-8"?>
<!-- Generator: Adobe Illustrator 17.0.0, SVG Export Plug-In . SVG Version: 6.00 Build 0)  -->
<!DOCTYPE svg PUBLIC "-//W3C//DTD SVG 1.1//EN" "http://www.w3.org/Graphics/SVG/1.1/DTD/svg11.dtd">
<svg version="1.1" id="Layer_1" xmlns="http://www.w3.org/2000/svg" xmlns:xlink="http://www.w3.org/1999/xlink" x="0px" y="0px"
	 width="1600px" height="1200px" viewBox="0 0 1600 1200" enable-background="new 0 0 1600 1200" xml:space="preserve">
<title>Red Hat icon</title>
<path fill="#FFFFFF" d="M1000.45,669.3c78.85,0,193-16.3,193-110.1c0.22-7.238-0.452-14.476-2-21.55l-47-204
	c-10.8-44.9-20.3-65.25-99.1-104.65c-61.15-31.25-194.4-82.9-233.8-82.9c-36.65,0-47.35,47.3-91.1,47.3
	c-42.1,0-73.35-35.3-112.75-35.3c-37.85,0-62.5,25.75-81.5,78.8c0,0-53,149.5-59.85,171.2c-1.089,3.988-1.561,8.119-1.4,12.25
	c0,58.1,228.85,248.7,535.5,248.7 M1205.5,597.3c10.9,51.6,10.9,57,10.9,63.85c0,88.25-99.2,137.25-229.65,137.25
	c-294.75,0.2-553-172.55-553-286.7c-0.029-15.904,3.204-31.645,9.5-46.25C337.3,470.75,200,489.7,200,610.85
	c0,198.45,470.25,443.05,842.55,443.05c285.5,0,357.45-129.1,357.45-231c0-80.25-69.35-171.25-194.35-225.6"/>
</svg>
