<?xml version="1.0" encoding="utf-8"?>
<!-- Generator: Adobe Illustrator 17.0.0, SVG Export Plug-In . SVG Version: 6.00 Build 0)  -->
<!DOCTYPE svg PUBLIC "-//W3C//DTD SVG 1.1//EN" "http://www.w3.org/Graphics/SVG/1.1/DTD/svg11.dtd">
<svg version="1.1" id="Layer_1" xmlns="http://www.w3.org/2000/svg" xmlns:xlink="http://www.w3.org/1999/xlink" x="0px" y="0px"
	 width="1600px" height="1200px" viewBox="0 0 1600 1200" enable-background="new 0 0 1600 1200" xml:space="preserve">
<title>Spotify icon</title>
<path fill="#FFFFFF" d="M800,0C470,0,200,270,200,600s270,600,600,600s600-270,600-600S1133,0,800,0z M1076.05,867
	c-12,17.95-33,24-51.05,12c-141-87-318-105.05-528.05-57.05C476.05,828.05,458,813,452,795c-6-21.05,9-39,27-45
	c228-51.05,426-30,582,66C1082,825,1084.95,848.95,1076.05,867L1076.05,867z M1148.05,702c-15.05,21-42.05,30-63.1,15
	C923,618,677,588,488,648c-23.95,6-51-6-57-30s6-51.05,30-57.05C680,495,950,528.05,1136,642C1154.05,651.05,1163,681,1148.05,702
	L1148.05,702z M1154.05,534C962,420,641,408,458,465.05C428,474,398,456,389,429c-9-30.05,9-60,36-69.05c213-63,564-51,786.05,81.05
	c26.95,15,35.95,51,20.95,78C1217.05,540.05,1181,548.95,1154.05,534L1154.05,534z"/>
</svg>
