<?xml version="1.0" encoding="utf-8"?>
<!-- Generator: Adobe Illustrator 17.0.0, SVG Export Plug-In . SVG Version: 6.00 Build 0)  -->
<!DOCTYPE svg PUBLIC "-//W3C//DTD SVG 1.1//EN" "http://www.w3.org/Graphics/SVG/1.1/DTD/svg11.dtd">
<svg version="1.1" id="Layer_1" xmlns="http://www.w3.org/2000/svg" xmlns:xlink="http://www.w3.org/1999/xlink" x="0px" y="0px"
	 width="1600px" height="1200px" viewBox="0 0 1600 1200" enable-background="new 0 0 1600 1200" xml:space="preserve">
<title>Steam icon</title>
<path fill="#FFFFFF" d="M798.95,0C483.9,0,225.55,243,201.1,551.85l321.6,132.9c27.25-18.55,60.15-29.5,95.6-29.5
	c3.15,0,6.25,0.2,9.4,0.3l143.05-207.1v-2.95c0-124.75,101.4-226.2,226.2-226.2c124.7,0,226.2,101.55,226.2,226.35
	s-101.5,226.25-226.2,226.25h-5.25L787.9,817.45c0,2.6,0.2,5.25,0.2,7.95c0,93.75-75.75,169.8-169.5,169.8
	c-81.75,0-150.8-58.65-166.55-136.35L221.8,763.5c71.3,251.85,302.5,436.5,577.15,436.5c331.35,0,599.95-268.65,599.95-600
	S1130.25,0,798.95,0z M577,910.5L503.35,880c13.1,27.15,35.7,49.95,65.7,62.5c64.85,26.95,139.65-3.8,166.6-68.75
	c13.15-31.5,13.2-65.95,0.25-97.45s-37.5-56.05-68.85-69.15c-31.2-13-64.5-12.45-93.9-1.5l76.15,31.5c47.8,20,70.45,75,50.45,122.75
	c-19.85,47.85-74.85,70.5-122.7,50.6L577,910.5L577,910.5z M1147.75,445.35c0-83.1-67.65-150.75-150.75-150.75
	c-83.25,0-150.75,67.65-150.75,150.75c0,83.25,67.5,150.75,150.75,150.75C1080.15,596.1,1147.75,528.6,1147.75,445.35z M884.1,445.1
	c0-62.6,50.65-113.3,113.25-113.3c62.45,0,113.3,50.7,113.3,113.3c0,62.55-50.85,113.25-113.3,113.25
	C934.7,558.35,884.1,507.65,884.1,445.1L884.1,445.1z"/>
</svg>
