<?xml version="1.0" encoding="utf-8"?>
<!-- Generator: Adobe Illustrator 17.0.0, SVG Export Plug-In . SVG Version: 6.00 Build 0)  -->
<!DOCTYPE svg PUBLIC "-//W3C//DTD SVG 1.1//EN" "http://www.w3.org/Graphics/SVG/1.1/DTD/svg11.dtd">
<svg version="1.1" id="Layer_1" xmlns="http://www.w3.org/2000/svg" xmlns:xlink="http://www.w3.org/1999/xlink" x="0px" y="0px"
	 width="60px" height="48px" viewBox="-4 -4 60 48" enable-background="new -4 -4 60 48" xml:space="preserve">
<g>
	<circle fill="#D9083C" cx="-2" cy="-2" r="2"/>
	<circle fill="#D9083C" cx="10" cy="-2" r="2"/>
	<circle fill="#D9083C" cx="22" cy="-2" r="2"/>
	<circle fill="#D9083C" cx="34" cy="-2" r="2"/>
	<circle fill="#D9083C" cx="46" cy="-2" r="2"/>
	<circle fill="#D9083C" cx="-2" cy="10" r="2"/>
	<circle fill="#D9083C" cx="10" cy="10" r="2"/>
	<circle fill="#D9083C" cx="22" cy="10" r="2"/>
	<circle fill="#D9083C" cx="34" cy="10" r="2"/>
	<circle fill="#D9083C" cx="46" cy="10" r="2"/>
	<circle fill="#D9083C" cx="-2" cy="22" r="2"/>
	<circle fill="#D9083C" cx="10" cy="22" r="2"/>
	<circle fill="#D9083C" cx="22" cy="22" r="2"/>
	<circle fill="#D9083C" cx="34" cy="22" r="2"/>
	<circle fill="#D9083C" cx="46" cy="22" r="2"/>
	<circle fill="#D9083C" cx="-2" cy="34" r="2"/>
	<circle fill="#D9083C" cx="10" cy="34" r="2"/>
	<circle fill="#D9083C" cx="22" cy="34" r="2"/>
	<circle fill="#D9083C" cx="34" cy="34" r="2"/>
	<circle fill="#D9083C" cx="46" cy="34" r="2"/>
</g>
</svg>
