<svg xmlns="http://www.w3.org/2000/svg" xmlns:lucid="lucid" width="720" height="340"><g lucid:page-tab-id="0_0"><path d="M-200-80h1870.87v1322.83H-200z" fill="#fff"/><path d="M20 26c0-3.3 2.7-6 6-6h668c3.3 0 6 2.7 6 6v288c0 3.3-2.7 6-6 6H26c-3.3 0-6-2.7-6-6z" stroke="#000" stroke-opacity="0" stroke-width="3" fill="#fff"/><path d="M271.04 224.07V122.03l-67.2 54.63c-10.88 8.6-26.24 8.87-36.48 0L97.6 120.92l-1.92 103.43c0 16.08-13.44 28.84-29.44 28.84-16-.3-26.24-13.6-26.24-29.68V60.2c0-11.1 6.4-21.36 16.64-26.08 10.24-4.7 22.4-3.32 30.72 3.6l97.92 78.76L281.92 38c8.32-7.2 20.48-8.6 30.72-3.88 10.24 4.72 16.64 15.26 16.64 26.35v111.75" stroke="#000" stroke-opacity="0" stroke-width="2.07" fill="#fc7746"/><path d="M459.2 45.22c7.68-9.43 24.32-16.36 35.84-12.2 11.52 4.16 19.84 15.25 19.84 27.45v162.77c0 9.15-4.48 18.3-11.52 23.85-10.88 8.03-24.32 8.03-34.56.54l-50.56-35.77c-12.8-9.43-17.28-27.45-7.68-40.76 8.96-13.58 27.52-16.63 40.96-7.2l4.48 3.6v-38.54l-133.12 113.7c-7.68 6.65-14.08 10.53-23.04 10.53-4.48 0-9.6-1.4-14.08-3.9-9.6-5.26-14.72-15.52-14.72-26.06s4.48-20.8 12.16-28l176-150.02z" stroke="#000" stroke-opacity="0" stroke-width="2.07" fill="#8386ef"/><path d="M85.44 60.2c0 10.25-7.68 18.3-17.92 18.3-10.24 0-18.56-8.05-18.56-18.3 0-10 8.32-18.03 18.56-18.03 10.24 0 17.92 8.04 17.92 18.02zM317.76 60.2c0 10.25-7.68 18.3-17.92 18.3-10.24 0-18.56-8.05-18.56-18.3 0-10 8.32-18.03 18.56-18.03 10.24 0 17.92 8.04 17.92 18.02zM317.12 224.35c0 10.26-8.32 18.3-18.56 18.3-9.6 0-17.92-8.04-17.92-18.3 0-9.98 8.32-18.02 17.92-18.02 10.24 0 18.56 8.04 18.56 18.02zM504.64 60.2c0 10.25-7.68 18.3-17.92 18.3-10.24 0-18.56-8.05-18.56-18.3 0-10 8.32-18.03 18.56-18.03 10.24 0 17.92 8.04 17.92 18.02zM504.64 225.74c0 9.98-7.68 18.02-17.92 18.02-10.24 0-18.56-8.04-18.56-18.02 0-10.26 8.32-18.3 18.56-18.3 10.24 0 17.92 8.04 17.92 18.3zM85.44 225.74c0 9.98-7.68 18.02-17.92 18.02-10.24 0-18.56-8.04-18.56-18.02 0-10.26 8.32-18.3 18.56-18.3 10.24 0 17.92 8.04 17.92 18.3z" stroke="#000" stroke-opacity="0" stroke-width="2.07" fill="#fff"/><path d="M563.52 237.1h-1.28c-4.48.56-7.68.28-8.96-1.1-1.28-1.4-1.92-4.16-1.28-5V171.4c0-4.45-3.84-8.33-8.32-8.33s-8.32 3.88-8.32 8.32v58.5c0 2.5 0 11.1 6.4 17.47 4.48 4.16 10.24 6.1 17.28 6.1 1.28 0 3.2 0 5.12-.28h.64c3.84-.57 6.4-3.9 6.4-8.05 0-4.44-3.2-8.04-7.68-8.04zM599.36 171.4c0 4.42-3.84 8.03-8.32 8.03s-8.32-3.6-8.32-8.04c0-4.45 3.84-8.06 8.32-8.06s8.32 3.6 8.32 8.05zM591.04 187.75c-4.48 0-8.32 3.6-8.32 8.04v48.8c0 4.43 3.84 8.03 8.32 8.03s8.32-3.6 8.32-8.04v-48.8c0-4.45-3.84-8.05-8.32-8.05zM647.36 187.75c-5.76 0-11.52 1.66-16.64 4.7v-20.23c0-4.44-3.84-8.04-8.32-8.04s-7.68 3.6-7.68 8.04V245.7c0 4.44 3.2 8.04 7.68 8.04 3.2 0 5.76-1.94 7.68-4.43 14.72 9.43 34.56 5.28 44.16-9.7 14.72-22.18-.64-51.85-26.88-51.85zm.64 50.2c-9.6 0-17.28-8.05-17.28-17.76 0-9.7 7.68-17.48 17.28-17.48 9.6 0 17.92 7.77 17.92 17.47s-7.68 17.74-17.92 17.74z" stroke="#000" stroke-opacity="0" stroke-width="2.07" fill="#63c9bd"/><path d="M47.04 275.37h14.72v1.94h-12.8v8.9h12.16v2.2H48.96v11.93h-1.92v-24.96zM64.96 292c0-1.1 0-2.2.64-3.32.64-1.1 1.28-1.94 1.92-2.77.64-.82 1.28-1.38 2.56-1.65 1.28-.56 1.92-.56 3.2-.56 1.28 0 2.56 0 3.84.55.64.27 1.92.83 2.56 1.66.64.84 1.28 1.67 1.92 2.78 0 1.1.64 2.22.64 3.33 0 1.4-.64 2.5-.64 3.62-.64 1.1-1.28 1.94-1.92 2.5-.64.82-1.92 1.38-2.56 1.93-1.28.28-2.56.56-3.84.56-1.28 0-1.92-.27-3.2-.55-1.28-.55-1.92-1.1-2.56-1.94-.64-.54-1.28-1.65-1.92-2.48-.64-1.1-.64-2.22-.64-3.6zm1.92 0c0 1.12.64 1.95.64 2.78.64.84.64 1.4 1.28 1.94.64.84 1.28 1.1 1.92 1.4.64.55 1.92.55 2.56.55 1.28 0 1.92 0 3.2-.56.64-.27 1.28-.82 1.92-1.38.64-.55.64-1.1 1.28-1.94V292v-2.5c-.64-.82-.64-1.65-1.28-2.2-.64-.56-1.28-1.1-1.92-1.4-1.28-.27-1.92-.54-3.2-.54-.64 0-1.92.27-2.56.55-.64.3-1.28.84-1.92 1.4-.64.55-1.28 1.38-1.28 2.2 0 .85-.64 1.68-.64 2.5zM86.72 288.4v-1.1-1.1-1.4-.83h1.92v2.76c.64-.82 1.28-1.65 2.56-2.2.64-.56 1.28-.84 2.56-.84h1.28v2.2c0-.27-.64-.27-.64-.27-1.28 0-1.92.28-2.56.56-.64.26-1.28.54-1.92 1.1 0 .55-.64 1.1-.64 1.94 0 .55-.64 1.38-.64 2.22v8.87h-1.92V288.4z" stroke="#000" stroke-opacity="0" stroke-width="2.07"/><path d="M108.48 275.37h8.32l5.76 16.1 5.76-16.1h8.32v24.96h-5.12V281.2l-7.04 19.13h-3.84l-6.4-19.13v19.13h-5.76v-24.96z" stroke="#000" stroke-opacity="0" stroke-width="2.07" fill="#fc7746"/><path d="M155.84 295.62v4.43h-1.92v-1.66-1.12c-.64.83-1.28 1.66-2.56 2.22-.64.83-1.92 1.1-3.2 1.1-1.28 0-2.56-.27-3.2-.55l-1.92-1.66c-.64-.57-.64-1.4-.64-2.23-.64-.83-.64-1.66-.64-2.5v-9.7h2.56v11.37c0 .55 0 1.38.64 1.66 0 .56.64.83 1.28 1.4.64.27 1.28.27 1.92.27.64 0 1.28 0 1.92-.28 1.28-.3 1.28-.84 1.92-1.4.64-.55 1.28-1.1 1.28-1.94.64-.83.64-1.94.64-3.05v-8.03h1.92v11.65zM162.24 273.7h1.92v26.35h-1.92V273.7zM178.24 285.9h-4.48v12.21c.64.57 1.28.57 1.92.57h1.28l1.28-.56v1.95l-1.28.56h-1.28c-.64 0-1.28 0-1.92-.27-.64-.28-1.28-.56-1.28-.83-.64-.56-.64-.83-.64-1.4-.64-.54-.64-1.1-.64-1.65V285.9H168v-1.93h3.2v-4.72h2.56v4.72h4.48v1.94zM181.44 277.6c0-.56.64-.84.64-1.12.64-.28.64-.55 1.28-.55s.64.27 1.28.55v2.22c-.64.28-.64.28-1.28.28s-.64 0-1.28-.28c0-.28-.64-.83-.64-1.1zm.64 6.37h2.56v16.08h-2.56v-16.08zM189.12 290.9h8.32v1.94h-8.32v-1.94z" stroke="#000" stroke-opacity="0" stroke-width="2.07"/><path d="M209.6 275.37h5.12l10.24 24.96h-5.76l-2.56-5.55h-9.6l-1.92 5.55h-5.76l10.24-24.96zm2.56 7.2l-3.2 7.78h6.4l-3.2-7.77z" stroke="#000" stroke-opacity="0" stroke-width="2.07" fill="#8386ef"/><path d="M244.16 299.22c0 1.94 0 3.6-.64 4.7-.64 1.4-1.28 2.23-1.92 3.06-1.28.56-1.92 1.1-3.2 1.4-.64.27-1.92.27-2.56.27-.64 0-1.92 0-2.56-.28-.64 0-1.28-.28-1.92-.55-1.28-.28-1.92-.84-1.92-1.1-.64-.57-1.28-.84-1.92-1.4l1.92-1.66c.64 1.1 1.28 1.94 2.56 2.5 1.28.27 2.56.55 3.84.55.64 0 1.92 0 2.56-.27.64-.28 1.28-.83 1.92-1.1.64-.56.64-1.12 1.28-1.67 0-.56 0-1.1.64-1.67v-1.4-3.6c-.64 1.1-1.28 1.94-2.56 2.5-1.28.55-1.92.83-3.84.83-1.28 0-1.92-.28-3.2-.56-1.28-.55-1.92-1.1-2.56-1.94-1.28-.83-1.28-1.66-1.92-2.77-.64-.83-.64-1.94-.64-3.05 0-1.1 0-2.2.64-3.32.64-.83.64-1.94 1.92-2.5.64-.82 1.28-1.38 2.56-1.93 1.28-.28 1.92-.56 3.2-.56 1.92 0 2.56.27 3.84.82 1.28.56 1.92 1.4 2.56 2.22v-2.77h1.92v15.25zm-1.92-7.2c0-1.12 0-1.95-.64-2.78 0-.56-.64-1.4-1.28-1.94-.64-.56-1.28-1.1-1.92-1.4-.64-.27-1.92-.54-2.56-.54-.64 0-1.92.27-2.56.55-.64.3-1.28.84-1.92 1.4-.64.55-1.28 1.38-1.28 1.94-.64.83-.64 1.66-.64 2.77 0 .84 0 1.67.64 2.5 0 .56.64 1.4 1.28 1.95s1.28 1.1 1.92 1.38c.64.28 1.92.56 2.56.56.64 0 1.92-.3 2.56-.57.64-.27 1.28-.83 1.92-1.38.64-.56 1.28-1.4 1.28-1.94.64-.83.64-1.66.64-2.5zM264 297c-.64 1.4-1.92 2.22-3.2 2.77-1.28.56-2.56.84-3.84.84-1.28 0-2.56-.27-3.2-.55-1.28-.55-1.92-1.1-2.56-1.94-1.28-.54-1.28-1.65-1.92-2.48-.64-1.1-.64-2.22-.64-3.6 0-1.12 0-2.23.64-3.34.64-.83 1.28-1.94 1.92-2.77.64-.54 1.28-1.1 2.56-1.65.64-.56 1.92-.56 3.2-.56 1.28 0 1.92 0 3.2.55.64.55 1.92 1.1 2.56 1.66.64.84.64 1.67 1.28 2.5 0 .84.64 1.95.64 2.78v1.38h-14.08c0 .56 0 1.1.64 1.67 0 .83 0 1.4.64 2.22l1.92 1.66c.64.57 1.92.57 3.2.57 1.28 0 1.92-.28 3.2-.84.64-.27 1.92-1.1 2.56-1.94L264 297zm-1.92-6.38v-1.94c-.64-.55-.64-1.1-1.28-1.66-.64-.56-1.28-.83-1.92-1.1-.64-.3-1.28-.56-1.92-.56-1.28 0-2.56.27-3.2.83-.64.26-1.28.82-1.92 1.65 0 .56-.64 1.1-.64 1.66-.64.57-.64.85-.64 1.12h11.52zM269.12 288.4v-1.1-1.1-1.4-.83h1.92v2.76c.64-.82 1.28-1.65 2.56-2.2.64-.56 1.92-.84 3.2-.84 1.28 0 2.56 0 3.2.55.64.27 1.28.83 1.92 1.38.64.83.64 1.4.64 2.22.64 1.1.64 1.94.64 2.77v9.7h-2.56v-9.7-1.94c0-.55 0-1.1-.64-1.66 0-.28-.64-.83-1.28-1.1-.64-.3-1.28-.56-1.92-.56-.64 0-1.28.27-1.92.55-.64.3-1.28.56-1.92 1.12-.64.55-1.28 1.4-1.28 2.22-.64.83-.64 1.66-.64 2.77v8.33h-1.92V288.4zM296.64 285.9h-4.48v10.55c0 .83 0 1.38.64 1.66 0 .57.64.57 1.28.57h1.28l1.28-.56v1.95c0 .28-.64.28-1.28.56h-1.28c-.64 0-1.28 0-1.92-.27-.64-.28-1.28-.56-1.28-.83-.64-.56-.64-.83-.64-1.4 0-.54-.64-1.1-.64-1.65V285.9h-3.2v-1.93h3.2v-4.72h2.56v4.72h4.48v1.94zM310.08 275.37H317.76c.64 0 1.28 0 1.92.28.64 0 1.28.28 1.92.55.64.28 1.28.56 1.92 1.1.64.57 1.28 1.12 1.28 1.95.64.56.64 1.67.64 2.78 0 1.1 0 1.94-.64 2.77-.64.83-.64 1.4-1.28 1.94-.64.56-1.28.83-2.56 1.1-.64.3-1.28.3-1.92.57l7.04 11.93h-2.56l-7.04-11.92H312v11.93h-1.92v-24.96zm2.56 10.82h4.48c1.28 0 2.56 0 3.2-.3.64-.27 1.28-.82 1.92-1.1.64-.55.64-1.1.64-1.66 0-.56.64-.84.64-1.4 0-.27-.64-.82-.64-1.38 0-.55 0-1.1-.64-1.38-.64-.56-1.28-.83-1.92-1.1-.64-.3-1.92-.57-3.2-.57h-4.48v8.9zM344.64 297c-.64 1.4-1.92 2.22-3.2 2.77-.64.56-2.56.84-3.84.84-1.28 0-2.56-.27-3.2-.55-1.28-.55-1.92-1.1-2.56-1.94-.64-.54-1.28-1.65-1.92-2.48 0-1.1-.64-2.22-.64-3.6 0-1.12.64-2.23.64-3.34.64-.83 1.28-1.94 1.92-2.77.64-.54 1.28-1.1 2.56-1.65.64-.56 1.92-.56 3.2-.56 1.28 0 2.56 0 3.2.55 1.28.55 1.92 1.1 2.56 1.66.64.84 1.28 1.67 1.28 2.5.64.84.64 1.95.64 2.78v1.38h-13.44v1.67c0 .83.64 1.4 1.28 2.22 0 .55.64 1.1 1.28 1.66 1.28.57 1.92.57 3.2.57 1.28 0 2.56-.28 3.2-.84 1.28-.27 1.92-1.1 2.56-1.94l1.28 1.1zm-1.28-6.38c0-.55-.64-1.38-.64-1.94-.64-.55-.64-1.1-1.28-1.66-.64-.56-1.28-.83-1.92-1.1-.64-.3-1.28-.56-1.92-.56-1.28 0-2.56.27-3.2.83-.64.26-1.28.82-1.92 1.65 0 .56-.64 1.1-.64 1.66v1.12h11.52zM349.76 277.6c0-.56 0-.84.64-1.12 0-.28.64-.55.64-.55.64 0 1.28.27 1.28.55.64.28.64.56.64 1.1 0 .3 0 .84-.64 1.12 0 .28-.64.28-1.28.28 0 0-.64 0-.64-.28-.64-.28-.64-.83-.64-1.1zm.64 6.37h1.92v16.08h-1.92v-16.08zM358.08 288.4v-1.1-1.1-1.4-.83H360c.64.55.64 1.1.64 1.66v1.1c.64-.82 1.28-1.65 1.92-2.2 1.28-.56 1.92-.84 3.84-.84 1.28 0 1.92 0 2.56.55 1.28.27 1.92.83 1.92 1.38.64.83 1.28 1.4 1.28 2.22V300.32h-1.92v-9.7-1.94c-.64-.55-.64-1.1-.64-1.66-.64-.28-.64-.83-1.28-1.1-.64-.3-1.28-.56-1.92-.56-1.28 0-1.92.27-2.56.55-.64.3-1.28.56-1.92 1.12-.64.55-.64 1.4-1.28 2.22v11.1h-2.56V288.4zM379.2 285.9H376v-1.93h3.2v-5.27c0-1.1 0-1.94.64-2.5 0-.83.64-1.38.64-1.94l1.92-.83c.64 0 1.28-.28 1.28-.28 1.28 0 1.92.28 2.56.56v1.67c-.64 0-1.28-.27-1.92-.27-1.92 0-3.2 1.38-3.2 4.43v4.44h3.84v1.94h-3.84v14.43h-1.92V285.9zM387.52 292c0-1.1 0-2.2.64-3.32 0-1.1.64-1.94 1.92-2.77.64-.82 1.28-1.38 2.56-1.65.64-.56 1.92-.56 3.2-.56 1.28 0 2.56 0 3.84.55.64.27 1.92.83 2.56 1.66.64.84 1.28 1.67 1.28 2.78.64 1.1.64 2.22.64 3.33 0 1.4 0 2.5-.64 3.62 0 1.1-.64 1.94-1.28 2.5-.64.82-1.92 1.38-2.56 1.93-1.28.28-2.56.56-3.84.56-1.28 0-2.56-.27-3.2-.55-1.28-.55-1.92-1.1-2.56-1.94-1.28-.54-1.28-1.65-1.92-2.48-.64-1.1-.64-2.22-.64-3.6zm1.92 0c0 1.12 0 1.95.64 2.78 0 .84.64 1.4 1.28 1.94.64.84 1.28 1.1 1.92 1.4.64.55 1.92.55 2.56.55 1.28 0 1.92 0 2.56-.56 1.28-.27 1.92-.82 2.56-1.38 0-.55.64-1.1 1.28-1.94V292v-2.5c-.64-.82-1.28-1.65-1.28-2.2-.64-.56-1.28-1.1-2.56-1.4-.64-.27-1.28-.54-2.56-.54-.64 0-1.92.27-2.56.55-.64.3-1.28.84-1.92 1.4-.64.55-1.28 1.38-1.28 2.2-.64.85-.64 1.68-.64 2.5zM409.28 288.4v-1.1-1.1-1.4-.83h1.92v2.76c.64-.82 1.28-1.65 1.92-2.2 1.28-.56 1.92-.84 3.2-.84h1.28v2.2l-.64-.27c-1.28 0-1.92.28-2.56.56-.64.26-1.28.54-1.92 1.1 0 .55-.64 1.1-.64 1.94-.64.55-.64 1.38-.64 2.22v8.87h-1.92V288.4zM433.6 297.83c-.64.84-1.28 1.67-2.56 1.94-.64.56-1.92.84-3.2.84-1.28 0-2.56-.27-3.2-.55-1.28-.55-1.92-1.1-2.56-1.94-1.28-.54-1.28-1.65-1.92-2.48-.64-1.1-.64-2.22-.64-3.6 0-1.12 0-2.23.64-3.34.64-1.1.64-1.94 1.92-2.77.64-.82 1.28-1.38 2.56-1.65.64-.56 1.92-.56 3.2-.56 1.28 0 2.56.27 3.2.55 1.28.55 1.92 1.38 3.2 2.2l-1.92 1.12c-.64-.55-1.28-1.1-1.92-1.38-.64-.57-1.28-.57-2.56-.57-.64 0-1.92 0-2.56.28l-1.92 1.67c-.64.56-1.28 1.1-1.28 1.94-.64.85-.64 1.68-.64 2.8 0 .82 0 1.65.64 2.48 0 .84.64 1.4 1.28 2.22.64.56 1.28.83 1.92 1.4.64.27 1.92.54 2.56.54 1.28 0 1.92-.27 2.56-.83.64-.27 1.28-.82 1.92-1.38l1.28 1.1zM451.52 297c-.64 1.4-1.92 2.22-3.2 2.77-1.28.56-2.56.84-3.84.84-1.28 0-2.56-.27-3.2-.55-1.28-.55-1.92-1.1-2.56-1.94-.64-.54-1.28-1.65-1.92-2.48 0-1.1-.64-2.22-.64-3.6 0-1.12.64-2.23.64-3.34.64-.83 1.28-1.94 1.92-2.77.64-.54 1.28-1.1 2.56-1.65.64-.56 1.92-.56 3.2-.56 1.28 0 2.56 0 3.2.55 1.28.55 1.92 1.1 2.56 1.66.64.84 1.28 1.67 1.28 2.5.64.84.64 1.95.64 2.78v1.38h-13.44v1.67c0 .83.64 1.4.64 2.22l1.92 1.66c1.28.57 1.92.57 3.2.57 1.28 0 1.92-.28 3.2-.84 1.28-.27 1.92-1.1 2.56-1.94l1.28 1.1zm-1.28-6.38c0-.55-.64-1.38-.64-1.94-.64-.55-.64-1.1-1.28-1.66-.64-.56-1.28-.83-1.92-1.1-.64-.3-1.28-.56-1.92-.56-1.28 0-2.56.27-3.2.83-.64.26-1.28.82-1.92 1.65 0 .56-.64 1.1-.64 1.66 0 .57-.64.85-.64 1.12h12.16zM456.64 288.4v-1.1-1.1-1.4-.83h1.92v2.76h.64c0-.82.64-1.65 1.92-2.2.64-.56 1.92-.84 3.2-.84 1.28 0 2.56.27 3.2.82.64.56 1.28 1.4 1.92 2.5.64-1.1 1.28-1.94 2.56-2.5.64-.55 1.92-.83 3.2-.83 1.28 0 1.92 0 2.56.55 1.28.27 1.92.83 1.92 1.38.64.83 1.28 1.4 1.28 2.22V300.32h-1.92v-9.7-1.94c-.64-.55-.64-1.1-.64-1.66-.64-.28-.64-.83-1.28-1.1-.64-.3-1.28-.56-1.92-.56-1.28 0-1.92.27-2.56.55-.64.56-1.28.84-1.92 1.4 0 .55-.64 1.38-.64 1.94v10.81h-1.92v-9.7c0-1.4-.64-2.5-1.28-3.6-.64-.84-1.28-1.4-2.56-1.4-.64 0-1.28.28-1.92.56-.64.3-1.28.56-1.92 1.12-.64.55-.64 1.4-1.28 2.22 0 .83-.64 1.66-.64 2.77v8.33h-1.92V288.4zM500.8 297c-.64 1.4-1.28 2.22-2.56 2.77-1.28.56-2.56.84-4.48.84-.64 0-1.92-.27-3.2-.55-.64-.55-1.92-1.1-2.56-1.94-.64-.54-1.28-1.65-1.28-2.48-.64-1.1-.64-2.22-.64-3.6 0-1.12 0-2.23.64-3.34 0-.83.64-1.94 1.28-2.77.64-.54 1.92-1.1 2.56-1.65 1.28-.56 1.92-.56 3.2-.56 1.28 0 2.56 0 3.2.55 1.28.55 1.92 1.1 2.56 1.66.64.84 1.28 1.67 1.28 2.5.64.84.64 1.95.64 2.78v1.38H488v1.67c.64.83.64 1.4 1.28 2.22l1.92 1.66c.64.57 1.92.57 3.2.57.64 0 1.92-.28 2.56-.84 1.28-.27 1.92-1.1 2.56-1.94l1.28 1.1zm-1.28-6.38c0-.55 0-1.38-.64-1.94 0-.55-.64-1.1-1.28-1.66 0-.56-.64-.83-1.28-1.1-1.28-.3-1.92-.56-2.56-.56-1.28 0-1.92.27-2.56.83-1.28.26-1.92.82-1.92 1.65-.64.56-.64 1.1-1.28 1.66v1.12h11.52zM506.56 288.4v-1.1c-.64-.28-.64-.84-.64-1.1v-1.4-.83h2.56v2.76c.64-.82 1.28-1.65 1.92-2.2 1.28-.56 2.56-.84 3.84-.84 1.28 0 1.92 0 2.56.55 1.28.27 1.92.83 1.92 1.38.64.83 1.28 1.4 1.28 2.22V300.32h-1.92v-9.7-1.94c0-.55-.64-1.1-.64-1.66-.64-.28-.64-.83-1.28-1.1-.64-.3-1.28-.56-1.92-.56-1.28 0-1.92.27-2.56.55-.64.3-1.28.56-1.92 1.12 0 .55-.64 1.4-.64 2.22-.64.83-.64 1.66-.64 2.77v8.33h-1.92V288.4zM534.08 285.9h-5.12v10.55c0 .83.64 1.38.64 1.66.64.57 1.28.57 1.92.57h1.28c0-.28.64-.28 1.28-.56v1.95l-1.28.56h-1.28c-1.28 0-1.92 0-1.92-.27-.64-.28-1.28-.56-1.28-.83-.64-.56-.64-.83-1.28-1.4v-12.19h-3.2v-1.93h3.2v-4.72h1.92v4.72h5.12v1.94zM547.52 275.37h1.92v22.74h11.52v2.23h-13.44v-24.96zM578.88 297c-1.28 1.4-1.92 2.22-3.2 2.77-1.28.56-2.56.84-3.84.84-1.28 0-2.56-.27-3.84-.55-.64-.55-1.92-1.1-2.56-1.94-.64-.54-1.28-1.65-1.28-2.48-.64-1.1-.64-2.22-.64-3.6 0-1.12 0-2.23.64-3.34 0-.83.64-1.94 1.28-2.77.64-.54 1.92-1.1 2.56-1.65 1.28-.56 2.56-.56 3.2-.56 1.28 0 2.56 0 3.84.55l1.92 1.66 1.92 2.5v4.16h-13.44v1.67c.64.83.64 1.4 1.28 2.22l1.92 1.66c.64.57 1.92.57 3.2.57.64 0 1.92-.28 3.2-.84.64-.27 1.28-1.1 1.92-1.94l1.92 1.1zm-1.92-6.38c0-.55 0-1.38-.64-1.94 0-.55-.64-1.1-.64-1.66-.64-.56-1.28-.83-1.92-1.1-.64-.3-1.28-.56-2.56-.56s-1.92.27-2.56.83c-.64.26-1.28.82-1.92 1.65-.64.56-.64 1.1-1.28 1.66v1.12h11.52zM596.16 293.4v2.22c0 .55.64 1.1.64 1.66v3.05h-1.92c0-.83-.64-1.66-.64-2.77-.64 1.1-1.28 1.94-1.92 2.2-1.28.57-1.92.85-3.84.85-.64 0-1.28 0-1.92-.27-.64 0-1.28-.28-1.92-.83 0-.28-.64-.83-1.28-1.4 0-.54-.64-1.38-.64-2.2 0-1.4.64-2.23 1.28-3.06.64-.55 1.28-1.1 2.56-1.66.64-.28 1.92-.56 2.56-.56 1.28-.27 1.92-.27 3.2-.27h1.92v-.84c0-1.65 0-2.48-1.28-3.04-.64-.55-1.92-1.1-3.2-1.1-1.92 0-3.2.83-4.48 1.94l-1.28-1.4c.64-.82 1.28-1.38 2.56-1.93 1.28-.28 2.56-.56 3.2-.56 1.92 0 3.84.57 5.12 1.4 1.28 1.1 1.92 2.5 1.92 4.7v3.9zm-3.84-1.4c-1.28 0-1.92 0-2.56.3-1.28 0-1.92.26-2.56.54-.64.28-1.28.56-1.28 1.1-.64.57-.64 1.12-.64 1.95v1.1c.64.56.64.83 1.28 1.1 0 .3.64.3 1.28.57h1.28c.64 0 1.92 0 2.56-.28.64-.3 1.28-.84 1.92-1.4 0-.55.64-1.1.64-1.66V292.02h-1.92zM601.92 288.4v-1.1-1.1-1.4-.83h1.92v1.66c0 .56 0 1.1.64 1.1 0-.82.64-1.65 1.92-2.2.64-.56 1.92-.84 3.2-.84h1.28l-.64 2.2c0-.27-.64-.27-.64-.27-1.28 0-1.92.28-2.56.56-.64.26-1.28.54-1.28 1.1-.64.55-1.28 1.1-1.28 1.94v11.09h-2.56V288.4zM614.08 288.4c0-.27 0-.55-.64-1.1v-1.1-1.4-.83H616v2.76c.64-.82 1.28-1.65 1.92-2.2 1.28-.56 2.56-.84 3.84-.84 1.28 0 1.92 0 2.56.55 1.28.27 1.92.83 1.92 1.38.64.83 1.28 1.4 1.28 2.22V300.32h-1.92v-9.7-1.94c0-.55-.64-1.1-.64-1.66-.64-.28-.64-.83-1.28-1.1-.64-.3-1.28-.56-1.92-.56-1.28 0-1.92.27-2.56.55-.64.3-1.28.56-1.92 1.12 0 .55-.64 1.4-1.28 2.22v11.1h-2.56V288.4zM633.28 277.6c0-.56 0-.84.64-1.12 0-.28.64-.55.64-.55.64 0 1.28.27 1.28.55.64.28.64.56.64 1.1 0 .3 0 .84-.64 1.12 0 .28-.64.28-1.28.28 0 0-.64 0-.64-.28-.64-.28-.64-.83-.64-1.1zm.64 6.37h1.92v16.08h-1.92v-16.08zM641.6 288.4v-1.1-1.1-1.4-.83h1.92v1.66c0 .56 0 1.1.64 1.1 0-.82.64-1.65 1.92-2.2.64-.56 1.92-.84 3.2-.84 1.28 0 2.56 0 3.2.55.64.27 1.28.83 1.92 1.38.64.83.64 1.4 1.28 2.22V300.32h-1.92v-9.7c0-.55 0-1.1-.64-1.94v-1.66c-.64-.28-1.28-.83-1.28-1.1-.64-.3-1.28-.56-2.56-.56-.64 0-1.28.27-1.92.55-.64.3-1.28.56-1.92 1.12-.64.55-.64 1.4-1.28 2.22v11.1h-2.56V288.4zM677.44 299.22c0 1.94 0 3.6-.64 4.7-.64 1.4-1.28 2.23-2.56 3.06-.64.56-1.28 1.1-2.56 1.4-1.28.27-1.92.27-2.56.27-1.28 0-1.92 0-2.56-.28-.64 0-1.28-.28-2.56-.55-.64-.28-1.28-.84-1.92-1.1 0-.57-.64-.84-1.28-1.4l1.92-1.66c.64 1.1 1.28 1.94 2.56 2.5 1.28.27 2.56.55 3.84.55.64 0 1.92 0 2.56-.27.64-.28 1.28-.83 1.92-1.1.64-.56.64-1.12 1.28-1.67 0-.56 0-1.1.64-1.67v-1.4-3.6c-.64 1.1-1.28 1.94-2.56 2.5-1.28.55-2.56.83-3.84.83-1.28 0-1.92-.28-3.2-.56-1.28-.55-1.92-1.1-2.56-1.94-1.28-.83-1.92-1.66-1.92-2.77-.64-.83-.64-1.94-.64-3.05 0-1.1 0-2.2.64-3.32 0-.83.64-1.94 1.92-2.5.64-.82 1.28-1.38 2.56-1.93 1.28-.28 1.92-.56 3.2-.56 1.28 0 2.56.27 3.84.82 1.28.56 1.92 1.4 2.56 2.22v-2.77h1.92v15.25zm-1.92-7.2c0-1.12 0-1.95-.64-2.78 0-.56-.64-1.4-1.28-1.94-.64-.56-1.28-1.1-1.92-1.4-.64-.27-1.92-.54-2.56-.54-.64 0-1.92.27-2.56.55-.64.3-1.28.84-1.92 1.4-.64.55-1.28 1.38-1.28 1.94-.64.83-.64 1.66-.64 2.77 0 .84 0 1.67.64 2.5 0 .56.64 1.4 1.28 1.95s1.28 1.1 1.92 1.38c.64.28 1.92.56 2.56.56.64 0 1.92-.3 2.56-.57.64-.27 1.28-.83 1.92-1.38.64-.56 1.28-1.4 1.28-1.94.64-.83.64-1.66.64-2.5z" stroke="#000" stroke-opacity="0" stroke-width="2.07"/></g></svg>