<svg xmlns="http://www.w3.org/2000/svg" xmlns:xlink="http://www.w3.org/1999/xlink" xmlns:lucid="lucid" width="1574.57" height="734"><g transform="translate(-738.0498687664165 -421.00000000000017)" lucid:page-tab-id="0_0"><path d="M998.05 624.42c0-3.32 2.7-6 6-6h81c3.3 0 6-2.7 6-6v-3c0-3.32 1.8-4 4-1.54l19 21.08c2.2 2.46 2.2 6.45 0 8.92l-19 21.08c-2.2 2.46-4 1.77-4-1.54v-3c0-3.32-2.7-6-6-6h-81c-3.3 0-6-2.7-6-6zM998.05 871.33c0-3.3 2.7-6 6-6h81c3.3 0 6-2.68 6-6v-3c0-3.3 1.8-4 4-1.54l19 21.07c2.2 2.47 2.2 6.46 0 8.92l-19 21.07c-2.2 2.47-4 1.78-4-1.54v-3c0-3.3-2.7-6-6-6h-81c-3.3 0-6-2.68-6-6z" stroke="#b2b2b2" stroke-width="3" fill="#b2b2b2"/><path d="M1058.05 1019c0-3.3 2.7-6 6-6h272c3.33 0 6 2.7 6 6v110c0 3.3-2.67 6-6 6h-272c-3.3 0-6-2.7-6-6z" stroke="#000" stroke-opacity="0" stroke-width="3" fill="#fff" fill-opacity="0"/><use xlink:href="#a" transform="matrix(1,0,0,1,1063.0498687664165,1018) translate(6.012345679012469 42.38888888888887)"/><use xlink:href="#b" transform="matrix(1,0,0,1,1063.0498687664165,1018) translate(37.123456790123555 42.38888888888887)"/><use xlink:href="#c" transform="matrix(1,0,0,1,1063.0498687664165,1018) translate(158.5432098765432 42.38888888888887)"/><use xlink:href="#d" transform="matrix(1,0,0,1,1063.0498687664165,1018) translate(103.83950617283953 79.72222222222217)"/><path d="M1342.06 1019c0-3.3 2.7-6 6-6h306.64c3.32 0 6 2.7 6 6v106.67c0 3.3-2.68 6-6 6h-306.64c-3.3 0-6-2.7-6-6z" stroke="#000" stroke-opacity="0" stroke-width="3" fill="#fff" fill-opacity="0"/><use xlink:href="#e" transform="matrix(1,0,0,1,1347.0623359579968,1018) translate(49.067901234567984 41.92013888888887)"/><use xlink:href="#f" transform="matrix(1,0,0,1,1347.0623359579968,1018) translate(80.17901234567907 41.92013888888887)"/><use xlink:href="#g" transform="matrix(1,0,0,1,1347.0623359579968,1018) translate(180.51234567901233 41.92013888888887)"/><use xlink:href="#h" transform="matrix(1,0,0,1,1347.0623359579968,1018) translate(76.76543209876547 79.25347222222217)"/><path d="M1678.05 1021c0-3.3 2.7-6 6-6h295.28c3.32 0 6 2.7 6 6v108c0 3.3-2.68 6-6 6h-295.28c-3.3 0-6-2.7-6-6z" stroke="#000" stroke-opacity="0" stroke-width="3" fill="#fff" fill-opacity="0"/><use xlink:href="#i" transform="matrix(1,0,0,1,1683.0498687664165,1019.9999999999998) translate(17.51234567901244 42.23263888888887)"/><use xlink:href="#j" transform="matrix(1,0,0,1,1683.0498687664165,1019.9999999999998) translate(48.62345679012353 42.23263888888887)"/><use xlink:href="#k" transform="matrix(1,0,0,1,1683.0498687664165,1019.9999999999998) translate(170.0432098765432 42.23263888888887)"/><use xlink:href="#l" transform="matrix(1,0,0,1,1683.0498687664165,1019.9999999999998) translate(115.33950617283952 79.56597222222217)"/><path d="M758.05 1019c0-3.3 2.7-6 6-6h265.28c3.32 0 6 2.7 6 6v110c0 3.3-2.68 6-6 6H764.05c-3.3 0-6-2.7-6-6z" stroke="#000" stroke-opacity="0" stroke-width="3" fill="#fff" fill-opacity="0"/><use xlink:href="#m" transform="matrix(1,0,0,1,763.0498687664165,1018) translate(77.91358024691363 42.38888888888887)"/><use xlink:href="#n" transform="matrix(1,0,0,1,763.0498687664165,1018) translate(109.02469135802473 42.38888888888887)"/><use xlink:href="#o" transform="matrix(1,0,0,1,763.0498687664165,1018) translate(71.82098765432102 79.72222222222217)"/><path d="M976.7 633.42c0 44.18-35.83 80-80 80-44.2 0-80-35.82-80-80 0-44.2 35.8-80 80-80 44.17 0 80 35.8 80 80z" stroke="#333" stroke-width="6" fill="#c1e4f7" fill-opacity=".4"/><path d="M899.37 608.05c-1.48 2.96 0 5.37 3.32 5.37h28c3.3 0 4.8-2.4 3.3-5.37l-14.63-29.27c-1.48-2.96-3.88-2.96-5.36 0zM859.37 668.05c-1.48 2.96 0 5.37 3.32 5.37h28c3.3 0 4.8-2.4 3.3-5.37l-14.63-29.27c-1.48-2.96-3.88-2.96-5.36 0z" stroke="#333" stroke-width="3" fill="#ffeca9" fill-opacity=".4"/><path d="M980.77 887.7c0 44.2-35.82 80-80 80-44.2 0-80-35.8-80-80 0-44.17 35.8-80 80-80 44.18 0 80 35.83 80 80z" stroke="#333" stroke-width="6" fill="#c1e4f7" fill-opacity=".4"/><path d="M900.77 878.2c0 11.05-8.96 20-20 20-11.05 0-20-8.95-20-20 0-11.04 8.95-20 20-20 11.04 0 20 8.96 20 20zM940.77 929.7c0 11.05-8.96 20-20 20-11.05 0-20-8.95-20-20 0-11.04 8.95-20 20-20 11.04 0 20 8.96 20 20z" stroke="#333" stroke-width="3" fill="#ffbbb1"/><path d="M1142.1 555.67c0-3.32 2.7-6 6-6h123.95c3.3 0 6 2.68 6 6v155.5c0 3.3-2.7 6-6 6H1148.1c-3.3 0-6-2.7-6-6z" stroke="#333" stroke-width="6" fill="#c1e4f7" fill-opacity=".4"/><path d="M1194.78 611.8c-1.48 2.96 0 5.37 3.32 5.37h28c3.3 0 4.8-2.4 3.32-5.37l-14.64-29.27c-1.48-2.96-3.88-2.96-5.36 0z" stroke="#333" stroke-width="3" fill="#ffeca9"/><path d="M1232.1 672.17c0 11.04-8.95 20-20 20s-20-8.96-20-20c0-11.05 8.95-20 20-20s20 8.95 20 20z" stroke="#333" stroke-width="3" fill="#ffbbb1"/><path d="M1142.1 806.2c0-3.3 2.7-6 6-6h123.95c3.3 0 6 2.7 6 6v155.5c0 3.32-2.7 6-6 6H1148.1c-3.3 0-6-2.68-6-6z" stroke="#333" stroke-width="6" fill="#c1e4f7" fill-opacity=".4"/><path d="M1194.78 861.68c-1.48 2.96 0 5.36 3.32 5.36h28c3.3 0 4.8-2.4 3.32-5.36l-14.64-29.27c-1.48-2.96-3.88-2.96-5.36 0z" stroke="#333" stroke-width="3" fill="#ffeca9"/><path d="M1232.1 922.04c0 11.05-8.95 20-20 20s-20-8.95-20-20c0-11.04 8.95-20 20-20s20 8.96 20 20z" stroke="#333" stroke-width="3" fill="#ffbbb1"/><path d="M1598.05 887.7c0 44.2-35.82 80-80 80s-80-35.8-80-80c0-44.17 35.82-80 80-80s80 35.83 80 80z" stroke="#333" stroke-width="6" fill="#c1e4f7" fill-opacity=".4"/><path d="M1498.05 876.83c0 11.05-8.95 20-20 20s-20-8.95-20-20c0-11.04 8.95-20 20-20s20 8.96 20 20zM1538.05 929.67c0 11.04-8.95 20-20 20s-20-8.96-20-20c0-11.05 8.95-20 20-20s20 8.95 20 20z" stroke="#333" stroke-width="3" fill="#ffbbb1"/><path d="M1598.05 630c0 44.18-35.82 80-80 80s-80-35.82-80-80 35.82-80 80-80 80 35.82 80 80z" stroke="#333" stroke-width="6" fill="#c1e4f7" fill-opacity=".4"/><path d="M1516.66 604.63c-1.48 2.97 0 5.37 3.32 5.37h28c3.3 0 4.8-2.4 3.3-5.37l-14.62-29.26c-1.48-2.97-3.9-2.97-5.37 0zM1476.66 664.63c-1.48 2.97 0 5.37 3.32 5.37h28c3.3 0 4.8-2.4 3.3-5.37l-14.62-29.26c-1.48-2.97-3.9-2.97-5.37 0z" stroke="#333" stroke-width="3" fill="#ffeca9" fill-opacity=".4"/><path d="M1298.05 624.42c0-3.32 2.7-6 6-6h81c3.3 0 6-2.7 6-6v-3c0-3.32 1.8-4 4-1.54l19 21.08c2.2 2.46 2.2 6.45 0 8.92l-19 21.08c-2.2 2.46-4 1.77-4-1.54v-3c0-3.32-2.7-6-6-6h-81c-3.3 0-6-2.7-6-6zM1298.05 874c0-3.3 2.7-6 6-6h81c3.3 0 6-2.7 6-6v-3c0-3.3 1.8-4 4-1.54l19 21.08c2.2 2.46 2.2 6.46 0 8.92l-19 21.08c-2.2 2.46-4 1.77-4-1.54v-3c0-3.3-2.7-6-6-6h-81c-3.3 0-6-2.7-6-6z" stroke="#b2b2b2" stroke-width="3" fill="#b2b2b2"/><path d="M1558.05 873c0 11.05-8.95 20-20 20s-20-8.95-20-20 8.95-20 20-20 20 8.95 20 20z" stroke="#333" stroke-width="3" fill="#c92d39"/><path d="M1532.58 653.05c-1.48 2.96 0 5.37 3.32 5.37h28c3.3 0 4.8-2.4 3.32-5.37l-14.64-29.27c-1.48-2.96-3.88-2.96-5.36 0z" stroke="#333" stroke-width="3" fill="#fcc438"/><path d="M1764.4 556c0-3.3 2.7-6 6-6h148c3.32 0 6 2.7 6 6v96.42c0 3.3-2.68 6-6 6h-148c-3.3 0-6-2.7-6-6z" stroke="#333" stroke-width="6" fill="#c1e4f7" fill-opacity=".4"/><path d="M1800.73 618.84c-1.48 2.97 0 5.37 3.32 5.37h28c3.3 0 4.8-2.4 3.32-5.36l-14.64-29.27c-1.48-2.96-3.88-2.96-5.36 0z" stroke="#333" stroke-width="3" fill="#ffeca9"/><path d="M1898.05 607.67c0 11.04-8.95 20-20 20s-20-8.96-20-20c0-11.05 8.95-20 20-20s20 8.95 20 20z" stroke="#333" stroke-width="3" fill="#c92d39"/><path d="M1764.4 862.83c0-3.3 2.7-6 6-6h148c3.32 0 6 2.7 6 6v96.42c0 3.3-2.68 6-6 6h-148c-3.3 0-6-2.7-6-6z" stroke="#333" stroke-width="6" fill="#c1e4f7" fill-opacity=".4"/><path d="M1621.23 602.12c0-3.3 2.7-6 6-6h81c3.3 0 6-2.68 6-6v-3c0-3.3 1.8-4 4-1.54l19 21.1c2.2 2.45 2.2 6.44 0 8.9l-19 21.1c-2.2 2.45-4 1.76-4-1.56v-3c0-3.3-2.7-6-6-6h-81c-3.3 0-6-2.68-6-6zM1618.05 900.67c0-3.32 2.7-6 6-6h81c3.3 0 6-2.7 6-6v-3c0-3.32 1.8-4 4-1.54l19 21.08c2.2 2.47 2.2 6.46 0 8.93l-19 21.08c-2.2 2.47-4 1.78-4-1.53v-3c0-3.32-2.7-6-6-6h-81c-3.3 0-6-2.7-6-6z" stroke="#b2b2b2" stroke-width="3" fill="#b2b2b2"/><path d="M1764.4 709.42c0-3.32 2.7-6 6-6h148c3.32 0 6 2.68 6 6v96.4c0 3.33-2.68 6-6 6h-148c-3.3 0-6-2.67-6-6z" stroke="#333" stroke-width="6" fill="#c1e4f7" fill-opacity=".4"/><path d="M1800.73 772.26c-1.48 2.96 0 5.37 3.32 5.37h28c3.3 0 4.8-2.4 3.32-5.37L1820.73 743c-1.48-2.97-3.88-2.97-5.36 0z" stroke="#333" stroke-width="3" fill="#fcc438"/><path d="M1898.05 757.63c0 11.04-8.95 20-20 20s-20-8.96-20-20c0-11.05 8.95-20 20-20s20 8.95 20 20z" stroke="#333" stroke-width="3" fill="#ffbbb1"/><path d="M1898.05 913c0 11.05-8.95 20-20 20s-20-8.95-20-20 8.95-20 20-20 20 8.95 20 20z" stroke="#333" stroke-width="3" fill="#c92d39"/><path d="M1800.73 924.3c-1.48 2.96 0 5.37 3.32 5.37h28c3.3 0 4.8-2.4 3.32-5.37l-14.64-29.27c-1.48-2.96-3.88-2.96-5.36 0z" stroke="#333" stroke-width="3" fill="#fcc438"/><path d="M1618.05 751.4c0-3.32 2.7-6 6-6h81c3.3 0 6-2.7 6-6v-3c0-3.32 1.8-4 4-1.54l19 21.08c2.2 2.46 2.2 6.45 0 8.92l-19 21.08c-2.2 2.46-4 1.77-4-1.54v-3c0-3.32-2.7-6-6-6h-81c-3.3 0-6-2.7-6-6z" stroke="#b2b2b2" stroke-width="3" fill="#b2b2b2"/><path d="M776.7 447c0-3.3 2.68-6 6-6h228c3.3 0 6 2.7 6 6v110c0 3.3-2.7 6-6 6h-228c-3.32 0-6-2.7-6-6z" stroke="#000" stroke-opacity="0" stroke-width="3" fill="#fff" fill-opacity="0"/><use xlink:href="#p" transform="matrix(1,0,0,1,781.6916010498728,446.00000000000017) translate(5.925925925925981 45.83333333333333)"/><use xlink:href="#q" transform="matrix(1,0,0,1,781.6916010498728,446.00000000000017) translate(80.66666666666667 45.83333333333333)"/><use xlink:href="#r" transform="matrix(1,0,0,1,781.6916010498728,446.00000000000017) translate(75.00000000000003 77.83333333333331)"/><use xlink:href="#s" transform="matrix(1,0,0,1,781.6916010498728,446.00000000000017) translate(121.66666666666667 77.83333333333331)"/><path d="M780.77 718.67c0-3.32 2.68-6 6-6h228c3.3 0 6 2.68 6 6v102c0 3.3-2.7 6-6 6h-228c-3.32 0-6-2.7-6-6z" stroke="#000" stroke-opacity="0" stroke-width="3" fill="#fff" fill-opacity="0"/><use xlink:href="#t" transform="matrix(1,0,0,1,785.7664041994956,717.666666666628) translate(5.925925925925952 40.83333333333333)"/><use xlink:href="#u" transform="matrix(1,0,0,1,785.7664041994956,717.666666666628) translate(80.66666666666669 40.83333333333333)"/><use xlink:href="#v" transform="matrix(1,0,0,1,785.7664041994956,717.666666666628) translate(75 72.83333333333331)"/><use xlink:href="#w" transform="matrix(1,0,0,1,785.7664041994956,717.666666666628) translate(121.66666666666666 72.83333333333331)"/><path d="M1390.66 447c0-3.3 2.68-6 6-6h228c3.3 0 6 2.7 6 6v110c0 3.3-2.7 6-6 6h-228c-3.32 0-6-2.7-6-6z" stroke="#000" stroke-opacity="0" stroke-width="3" fill="#fff" fill-opacity="0"/><g><use xlink:href="#p" transform="matrix(1,0,0,1,1395.6581364829997,446.00000000000017) translate(5.925925925925981 45.83333333333333)"/><use xlink:href="#q" transform="matrix(1,0,0,1,1395.6581364829997,446.00000000000017) translate(80.66666666666667 45.83333333333333)"/><use xlink:href="#x" transform="matrix(1,0,0,1,1395.6581364829997,446.00000000000017) translate(51.6666666666667 77.83333333333331)"/><use xlink:href="#y" transform="matrix(1,0,0,1,1395.6581364829997,446.00000000000017) translate(98.33333333333334 77.83333333333331)"/><use xlink:href="#z" transform="matrix(1,0,0,1,1395.6581364829997,446.00000000000017) translate(145 77.83333333333331)"/></g><path d="M1378.05 718.67c0-3.32 2.7-6 6-6h228c3.3 0 6 2.68 6 6v102c0 3.3-2.7 6-6 6h-228c-3.3 0-6-2.7-6-6z" stroke="#000" stroke-opacity="0" stroke-width="3" fill="#fff" fill-opacity="0"/><g><use xlink:href="#t" transform="matrix(1,0,0,1,1383.0498687664165,717.6666666666666) translate(5.925925925925952 40.83333333333333)"/><use xlink:href="#u" transform="matrix(1,0,0,1,1383.0498687664165,717.6666666666666) translate(80.66666666666669 40.83333333333333)"/><use xlink:href="#A" transform="matrix(1,0,0,1,1383.0498687664165,717.6666666666666) translate(51.66666666666668 72.83333333333331)"/><use xlink:href="#B" transform="matrix(1,0,0,1,1383.0498687664165,717.6666666666666) translate(98.33333333333334 72.83333333333331)"/><use xlink:href="#C" transform="matrix(1,0,0,1,1383.0498687664165,717.6666666666666) translate(145 72.83333333333331)"/></g><g><path d="M1978.04 751.4c0-3.32 2.68-6 6-6l41-.04c3.3 0 6-2.7 6-6v-3c0-3.32 1.8-4 4-1.55l19 21.08c2.2 2.46 2.2 6.45 0 8.92l-18.96 21.1c-2.2 2.46-4 1.77-4-1.55v-3c-.02-3.3-2.7-6-6.02-6l-41 .04c-3.3 0-6-2.7-6-6z" stroke="#b2b2b2" stroke-width="3" fill="#b2b2b2"/></g><path d="M2104.9 705.57h-24.1c-1.43 0-2.75-1.2-2.75-2.5v-38.2c0-1.3 1.32-2.5 2.75-2.5h24.1c1.53 0 2.85 1.2 2.85 2.5v38.2c0 1.3-1.32 2.5-2.86 2.5zm40.03-.5h-24.86c-1.54 0-2.75-1.2-2.75-2.6v-94.4c0-1.3 1.2-2.5 2.75-2.5h24.86c1.43 0 2.75 1.2 2.75 2.5v94.4c0 1.4-1.32 2.6-2.75 2.6zm40.15 0h-23.54c-1.54 0-2.86-1.2-2.86-2.6v-61.3c0-1.4 1.32-2.5 2.86-2.5h23.76c1.43 0 2.75 1.1 2.75 2.5v61.3c-.22 1.4-1.54 2.6-2.97 2.6z" stroke="#000" stroke-opacity="0" stroke-width=".29" fill="#ffdba9"/><path d="M2104.9 893h-24.1c-1.43 0-2.75-1.2-2.75-2.5v-38.2c0-1.3 1.32-2.5 2.75-2.5h24.1c1.53 0 2.85 1.2 2.85 2.5v38.2c0 1.3-1.32 2.5-2.86 2.5zm40.03-.5h-24.86c-1.54 0-2.75-1.2-2.75-2.6v-94.4c0-1.3 1.2-2.5 2.75-2.5h24.86c1.43 0 2.75 1.2 2.75 2.5v94.4c0 1.4-1.32 2.6-2.75 2.6zm40.15 0h-23.54c-1.54 0-2.86-1.2-2.86-2.6v-61.3c0-1.4 1.32-2.5 2.86-2.5h23.76c1.43 0 2.75 1.1 2.75 2.5v61.3c-.22 1.4-1.54 2.6-2.97 2.6z" stroke="#000" stroke-opacity="0" stroke-width=".29" fill="#ff8f80"/><path d="M1985.33 1021c0-3.3 2.7-6 6-6h295.3c3.3 0 6 2.7 6 6v108c0 3.3-2.7 6-6 6h-295.3c-3.3 0-6-2.7-6-6z" stroke="#000" stroke-opacity="0" stroke-width="3" fill="#fff" fill-opacity="0"/><g><use xlink:href="#D" transform="matrix(1,0,0,1,1990.3333333333333,1019.9999999999998) translate(32.98148148148155 42.23263888888887)"/><use xlink:href="#E" transform="matrix(1,0,0,1,1990.3333333333333,1019.9999999999998) translate(185.59876543209873 42.23263888888887)"/><use xlink:href="#F" transform="matrix(1,0,0,1,1990.3333333333333,1019.9999999999998) translate(64.43827160493832 79.56597222222217)"/></g><path d="M2025.33 447c0-3.3 2.7-6 6-6h188c3.32 0 6 2.7 6 6v110c0 3.3-2.68 6-6 6h-188c-3.3 0-6-2.7-6-6z" stroke="#000" stroke-opacity="0" stroke-width="3" fill="#fff" fill-opacity="0"/><g><use xlink:href="#G" transform="matrix(1,0,0,1,2030.333333333221,446.00000000000017) translate(14.037037037037067 28.33333333333333)"/><use xlink:href="#H" transform="matrix(1,0,0,1,2030.333333333221,446.00000000000017) translate(96.1111111111111 28.33333333333333)"/><use xlink:href="#I" transform="matrix(1,0,0,1,2030.333333333221,446.00000000000017) translate(156.77777777777774 28.33333333333333)"/><use xlink:href="#J" transform="matrix(1,0,0,1,2030.333333333221,446.00000000000017) translate(47.666666666666686 60.33333333333332)"/><use xlink:href="#K" transform="matrix(1,0,0,1,2030.333333333221,446.00000000000017) translate(46.25925925925928 92.33333333333331)"/></g><path d="M1087.37 465.67c0-3.32 2.7-6 6-6h228c3.3 0 6 2.68 6 6v72.66c0 3.32-2.7 6-6 6h-228c-3.3 0-6-2.68-6-6z" stroke="#000" stroke-opacity="0" stroke-width="3" fill="#fff" fill-opacity="0"/><g><use xlink:href="#p" transform="matrix(1,0,0,1,1092.3707349081446,464.66666666666686) translate(1.4444444444444855 42.42708333333333)"/><use xlink:href="#L" transform="matrix(1,0,0,1,1092.3707349081446,464.66666666666686) translate(76.18518518518518 42.42708333333333)"/></g><path d="M1693.95 465.67c0-3.32 2.68-6 6-6h288.92c3.3 0 6 2.68 6 6v72.66c0 3.32-2.7 6-6 6h-288.92c-3.32 0-6-2.68-6-6z" stroke="#000" stroke-opacity="0" stroke-width="3" fill="#fff" fill-opacity="0"/><g><use xlink:href="#M" transform="matrix(1,0,0,1,1698.9455380578547,464.66666666666686) translate(54.46296296296302 26.02083333333333)"/><use xlink:href="#N" transform="matrix(1,0,0,1,1698.9455380578547,464.66666666666686) translate(168.46296296296296 26.02083333333333)"/><use xlink:href="#O" transform="matrix(1,0,0,1,1698.9455380578547,464.66666666666686) translate(69.31481481481484 58.02083333333332)"/></g><defs><path fill="#333" d="M23-231c66-19 162-2 134 80C139-97 87-78 49-40h116V0H15v-33c34-46 90-67 94-145 2-38-37-54-63-33l-8 34H23v-54" id="P"/><path fill="#333" d="M74-24C74-7 62 5 45 5S16-7 16-24s12-29 29-29 29 12 29 29" id="Q"/><g id="a"><use transform="matrix(0.08641975308641968,0,0,0.08641975308641968,0,0)" xlink:href="#P"/><use transform="matrix(0.08641975308641968,0,0,0.08641975308641968,15.555555555555543,0)" xlink:href="#Q"/></g><path fill="#333" d="M108-230c-35 27-44 80-44 143s8 116 44 144v20C7 49-17-153 67-223c12-10 25-19 41-27v20" id="R"/><path fill="#333" d="M155 0h-10L58-199v181l32 5V0H6v-13l30-5v-200l-30-5v-13h93l67 155 69-155h94v13l-30 5v200l30 5V0H212v-13l32-5v-181" id="S"/><path fill="#333" d="M75-13V0H4v-13l17-5 84-220h51l83 220 18 5V0H152v-13l28-5-23-61H67L45-18zm38-189L74-98h76" id="T"/><path fill="#333" d="M12-250C113-222 137-19 52 49 40 59 28 69 12 77V57C48 29 56-24 56-87s-9-116-44-143v-20" id="U"/><path fill="#333" d="M222-170c0 37-18 56-47 65l63 87 25 5V0h-76l-66-100H92v82l30 5V0H8v-13l28-5v-200l-30-5v-13c89 5 214-24 216 66zM92-119c45 2 75-3 75-50s-30-49-75-47v97" id="V"/><path fill="#333" d="M128-223l-36 5v199l103-3 14-49h16l-7 71H6v-13l30-5v-200l-30-5v-13h122v13" id="W"/><g id="b"><use transform="matrix(0.08641975308641968,0,0,0.08641975308641968,0,0)" xlink:href="#R"/><use transform="matrix(0.08641975308641968,0,0,0.08641975308641968,10.283950617283942,0)" xlink:href="#S"/><use transform="matrix(0.08641975308641968,0,0,0.08641975308641968,39.58024691358021,0)" xlink:href="#T"/><use transform="matrix(0.08641975308641968,0,0,0.08641975308641968,61.96296296296291,0)" xlink:href="#U"/><use transform="matrix(0.08641975308641968,0,0,0.08641975308641968,72.24691358024685,0)" xlink:href="#V"/><use transform="matrix(0.08641975308641968,0,0,0.08641975308641968,94.62962962962955,0)" xlink:href="#W"/></g><path fill="#333" d="M76-16l18 4V0H7v-12l18-4v-218l-17-4v-12h68v234" id="X"/><path fill="#333" d="M12-83c0-55 22-85 75-86 52-1 66 33 63 88H64c-1 37 6 64 44 63 14 0 28-4 39-6 3 28-28 25-55 27-57 4-80-31-80-86zm90-17c2-26 0-63-27-48-10 9-11 28-11 48h38" id="Y"/><path fill="#333" d="M31-163c51-5 127-20 127 40v107l17 4V0h-61l-4-13C82 13 12 12 12-46c0-51 46-52 95-53 9-45-22-69-57-44l-7 20H31v-40zM62-47c0 30 26 34 45 23v-59c-28 0-45 6-45 36" id="Z"/><path fill="#333" d="M132-132c-21 0-37 9-50 16v100l26 4V0H10v-12l21-4v-133l-21-5v-11h69l2 34c17-18 35-41 71-40v61c-17 3-14-14-20-22" id="aa"/><path fill="#333" d="M127-114c3-31-26-38-50-25v123l15 4V0H10v-12l16-4v-133l-16-5v-11h64l2 14c31-23 102-32 102 30v105l17 4V0h-82v-12l14-4v-98" id="ab"/><path fill="#333" d="M77-16l18 4V0H8v-12l18-4v-133l-17-5v-11h68v149zM51-196c-16 0-27-10-27-27s10-27 27-27 27 11 27 27c0 17-10 27-27 27" id="ac"/><path fill="#333" d="M9 41c2-18 18-26 32-33C29 1 16-9 16-28l29-33c-21-9-31-25-31-51-2-56 61-65 111-53l39-20c13 12-9 24-14 36 35 54-17 114-90 92-17 34 27 28 56 28 36-1 61 12 60 46-2 46-39 62-91 62-38 0-71-6-76-38zm35-3c6 35 97 29 94-9-2-28-50-14-78-17-8 7-15 14-16 26zm20-150c0 22 4 40 23 40 20 0 24-17 24-40 0-24-4-40-24-40-19 0-23 17-23 40" id="ad"/><g id="c"><use transform="matrix(0.08641975308641968,0,0,0.08641975308641968,0,0)" xlink:href="#X"/><use transform="matrix(0.08641975308641968,0,0,0.08641975308641968,8.641975308641968,0)" xlink:href="#Y"/><use transform="matrix(0.08641975308641968,0,0,0.08641975308641968,22.382716049382697,0)" xlink:href="#Z"/><use transform="matrix(0.08641975308641968,0,0,0.08641975308641968,37.93827160493824,0)" xlink:href="#aa"/><use transform="matrix(0.08641975308641968,0,0,0.08641975308641968,51.67901234567897,0)" xlink:href="#ab"/><use transform="matrix(0.08641975308641968,0,0,0.08641975308641968,68.9629629629629,0)" xlink:href="#ac"/><use transform="matrix(0.08641975308641968,0,0,0.08641975308641968,77.60493827160488,0)" xlink:href="#ab"/><use transform="matrix(0.08641975308641968,0,0,0.08641975308641968,94.8888888888888,0)" xlink:href="#ad"/></g><path fill="#333" d="M78-41c-2 24 21 26 40 20C122 3 98 2 77 4 5 10 32-84 27-147H6v-11l25-7 21-38h26v38h35v18H78v106" id="ae"/><path fill="#333" d="M102-142c-14-17-68-15-54 18 24 26 83 17 83 72 0 62-72 62-120 47v-45h12c4 23 16 37 43 37 35 0 39-37 9-46-31-9-65-19-64-61 0-52 59-55 108-45v43h-11" id="af"/><path fill="#333" d="M77-79l64-71-17-4v-11h63v11c-32 3-40 30-59 46l57 92 15 4V0h-80c-2-11 3-15 10-16L97-74 77-60v44l16 4V0H10v-12l16-4v-218l-17-4v-12h68v171" id="ag"/><g id="d"><use transform="matrix(0.08641975308641968,0,0,0.08641975308641968,0,0)" xlink:href="#ae"/><use transform="matrix(0.08641975308641968,0,0,0.08641975308641968,10.283950617283942,0)" xlink:href="#Z"/><use transform="matrix(0.08641975308641968,0,0,0.08641975308641968,25.839506172839485,0)" xlink:href="#af"/><use transform="matrix(0.08641975308641968,0,0,0.08641975308641968,37.93827160493824,0)" xlink:href="#ag"/><use transform="matrix(0.08641975308641968,0,0,0.08641975308641968,55.22222222222217,0)" xlink:href="#af"/></g><path fill="#333" d="M108-123c37 3 59 22 60 59C169 8 81 11 16-4l-2-57h16c4 25 8 49 41 47 31-1 44-21 45-52 2-37-24-47-61-46v-22c33 1 52-9 50-44 6-38-35-53-61-33l-7 34H21v-54c52-13 140-14 136 51-2 33-19 52-49 57" id="ah"/><g id="e"><use transform="matrix(0.08641975308641969,0,0,0.08641975308641969,0,0)" xlink:href="#ah"/><use transform="matrix(0.08641975308641969,0,0,0.08641975308641969,15.555555555555545,0)" xlink:href="#Q"/></g><path fill="#333" d="M76-115c0 75 46 117 116 94v-68l-30-5v-13h108v13l-23 5v77C218-3 181 4 145 4 67 4 18-36 18-115c0-83 46-123 130-123 37-1 66 6 91 15v54h-15c2-41-32-51-70-51-60 0-78 41-78 105" id="ai"/><path fill="#333" d="M90-170c54-1 76 32 76 87 1 56-23 87-77 87-53 0-75-32-75-87s23-86 76-87zM89-14c28-2 26-38 26-69s3-69-26-69c-27 0-24 39-24 69s-3 66 24 69" id="aj"/><path fill="#333" d="M154-149l38 94 32-94-20-5v-11h54v11l-13 4L190 4h-21l-38-93L93 4H72L13-149c-7-2-15-4-12-16h82v11l-20 5 36 94 38-94h17" id="ak"/><g id="f"><use transform="matrix(0.08641975308641969,0,0,0.08641975308641969,0,0)" xlink:href="#ai"/><use transform="matrix(0.08641975308641969,0,0,0.08641975308641969,24.197530864197514,0)" xlink:href="#aa"/><use transform="matrix(0.08641975308641969,0,0,0.08641975308641969,37.33333333333331,0)" xlink:href="#aj"/><use transform="matrix(0.08641975308641969,0,0,0.08641975308641969,52.88888888888885,0)" xlink:href="#ak"/><use transform="matrix(0.08641975308641969,0,0,0.08641975308641969,75.27160493827155,0)" xlink:href="#ab"/></g><path fill="#333" d="M186-86c2 69-46 103-114 85l1 62 25 4v12H5V65l18-4v-210l-18-5v-11h67v8c12-8 26-13 46-13 49 2 67 30 68 84zm-83 71c28 0 31-33 31-69 0-34-2-66-30-66-12 0-23 3-31 7v124c9 2 20 4 30 4" id="al"/><path fill="#333" d="M109-18c15 0 31-2 42-6v14c-11 9-31 13-51 13-59 0-86-28-88-86-3-75 66-101 135-80v48h-13c-3-20-7-40-34-37-51 7-55 138 9 134" id="am"/><path fill="#333" d="M81 5L15-149c-7-2-13-5-11-16h84v11l-20 5 39 91 35-91-19-5v-11h53c2 11-4 13-11 15C134-81 111-5 75 58 65 77 34 83 8 74V32h11c0 24 29 35 43 12 7-11 13-25 19-39" id="an"/><g id="g"><use transform="matrix(0.08641975308641969,0,0,0.08641975308641969,0,0)" xlink:href="#al"/><use transform="matrix(0.08641975308641969,0,0,0.08641975308641969,17.28395061728394,0)" xlink:href="#aj"/><use transform="matrix(0.08641975308641969,0,0,0.08641975308641969,32.839506172839485,0)" xlink:href="#X"/><use transform="matrix(0.08641975308641969,0,0,0.08641975308641969,41.48148148148145,0)" xlink:href="#ac"/><use transform="matrix(0.08641975308641969,0,0,0.08641975308641969,50.12345679012342,0)" xlink:href="#am"/><use transform="matrix(0.08641975308641969,0,0,0.08641975308641969,63.86419753086415,0)" xlink:href="#an"/></g><path fill="#333" d="M73-51c-3 31 27 38 51 25v-123l-16-5v-11h66v149l17 4V0h-65l-2-14C94 9 22 18 22-44v-105l-17-5v-11h68v114" id="ao"/><g id="h"><use transform="matrix(0.08641975308641969,0,0,0.08641975308641969,0,0)" xlink:href="#al"/><use transform="matrix(0.08641975308641969,0,0,0.08641975308641969,17.28395061728394,0)" xlink:href="#aj"/><use transform="matrix(0.08641975308641969,0,0,0.08641975308641969,32.839506172839485,0)" xlink:href="#al"/><use transform="matrix(0.08641975308641969,0,0,0.08641975308641969,50.123456790123434,0)" xlink:href="#ao"/><use transform="matrix(0.08641975308641969,0,0,0.08641975308641969,67.40740740740736,0)" xlink:href="#X"/><use transform="matrix(0.08641975308641969,0,0,0.08641975308641969,76.04938271604934,0)" xlink:href="#Z"/><use transform="matrix(0.08641975308641969,0,0,0.08641975308641969,91.60493827160488,0)" xlink:href="#ae"/><use transform="matrix(0.08641975308641969,0,0,0.08641975308641969,101.88888888888884,0)" xlink:href="#ac"/><use transform="matrix(0.08641975308641969,0,0,0.08641975308641969,110.5308641975308,0)" xlink:href="#aj"/><use transform="matrix(0.08641975308641969,0,0,0.08641975308641969,126.08641975308635,0)" xlink:href="#ab"/><use transform="matrix(0.08641975308641969,0,0,0.08641975308641969,143.3703703703703,0)" xlink:href="#af"/></g><path fill="#333" d="M150-47V0h-48v-47H5v-28l106-162h39v154h23v36h-23zm-48-36l2-107L34-83h68" id="ap"/><g id="i"><use transform="matrix(0.08641975308641969,0,0,0.08641975308641969,0,0)" xlink:href="#ap"/><use transform="matrix(0.08641975308641969,0,0,0.08641975308641969,15.555555555555545,0)" xlink:href="#Q"/></g><g id="j"><use transform="matrix(0.08641975308641969,0,0,0.08641975308641969,0,0)" xlink:href="#R"/><use transform="matrix(0.08641975308641969,0,0,0.08641975308641969,10.283950617283944,0)" xlink:href="#S"/><use transform="matrix(0.08641975308641969,0,0,0.08641975308641969,39.58024691358022,0)" xlink:href="#T"/><use transform="matrix(0.08641975308641969,0,0,0.08641975308641969,61.96296296296292,0)" xlink:href="#U"/><use transform="matrix(0.08641975308641969,0,0,0.08641975308641969,72.24691358024687,0)" xlink:href="#V"/><use transform="matrix(0.08641975308641969,0,0,0.08641975308641969,94.62962962962956,0)" xlink:href="#W"/></g><g id="k"><use transform="matrix(0.08641975308641969,0,0,0.08641975308641969,0,0)" xlink:href="#X"/><use transform="matrix(0.08641975308641969,0,0,0.08641975308641969,8.64197530864197,0)" xlink:href="#Y"/><use transform="matrix(0.08641975308641969,0,0,0.08641975308641969,22.3827160493827,0)" xlink:href="#Z"/><use transform="matrix(0.08641975308641969,0,0,0.08641975308641969,37.938271604938244,0)" xlink:href="#aa"/><use transform="matrix(0.08641975308641969,0,0,0.08641975308641969,51.67901234567898,0)" xlink:href="#ab"/><use transform="matrix(0.08641975308641969,0,0,0.08641975308641969,68.96296296296292,0)" xlink:href="#ac"/><use transform="matrix(0.08641975308641969,0,0,0.08641975308641969,77.6049382716049,0)" xlink:href="#ab"/><use transform="matrix(0.08641975308641969,0,0,0.08641975308641969,94.88888888888883,0)" xlink:href="#ad"/></g><g id="l"><use transform="matrix(0.08641975308641969,0,0,0.08641975308641969,0,0)" xlink:href="#ae"/><use transform="matrix(0.08641975308641969,0,0,0.08641975308641969,10.283950617283944,0)" xlink:href="#Z"/><use transform="matrix(0.08641975308641969,0,0,0.08641975308641969,25.83950617283949,0)" xlink:href="#af"/><use transform="matrix(0.08641975308641969,0,0,0.08641975308641969,37.938271604938244,0)" xlink:href="#ag"/><use transform="matrix(0.08641975308641969,0,0,0.08641975308641969,55.222222222222186,0)" xlink:href="#af"/></g><path fill="#333" d="M120-19l41 4V0H29v-15l41-4v-178l-41 13v-15l66-39h25v219" id="aq"/><g id="m"><use transform="matrix(0.08641975308641969,0,0,0.08641975308641969,0,0)" xlink:href="#aq"/><use transform="matrix(0.08641975308641969,0,0,0.08641975308641969,15.555555555555545,0)" xlink:href="#Q"/></g><path fill="#333" d="M92-112c43 4 61-13 61-54s-18-54-61-50v104zm118-54c0 63-50 78-118 74v74l39 5V0H8v-13l28-5v-200l-30-5v-13c88 3 205-20 204 70" id="ar"/><g id="n"><use transform="matrix(0.08641975308641969,0,0,0.08641975308641969,0,0)" xlink:href="#ar"/><use transform="matrix(0.08641975308641969,0,0,0.08641975308641969,18.925925925925913,0)" xlink:href="#aj"/><use transform="matrix(0.08641975308641969,0,0,0.08641975308641969,34.48148148148146,0)" xlink:href="#X"/><use transform="matrix(0.08641975308641969,0,0,0.08641975308641969,43.12345679012343,0)" xlink:href="#ac"/><use transform="matrix(0.08641975308641969,0,0,0.08641975308641969,51.765432098765395,0)" xlink:href="#am"/><use transform="matrix(0.08641975308641969,0,0,0.08641975308641969,65.50617283950612,0)" xlink:href="#an"/></g><g id="o"><use transform="matrix(0.08641975308641969,0,0,0.08641975308641969,0,0)" xlink:href="#al"/><use transform="matrix(0.08641975308641969,0,0,0.08641975308641969,17.28395061728394,0)" xlink:href="#aj"/><use transform="matrix(0.08641975308641969,0,0,0.08641975308641969,32.839506172839485,0)" xlink:href="#al"/><use transform="matrix(0.08641975308641969,0,0,0.08641975308641969,50.123456790123434,0)" xlink:href="#ao"/><use transform="matrix(0.08641975308641969,0,0,0.08641975308641969,67.40740740740736,0)" xlink:href="#X"/><use transform="matrix(0.08641975308641969,0,0,0.08641975308641969,76.04938271604934,0)" xlink:href="#Z"/><use transform="matrix(0.08641975308641969,0,0,0.08641975308641969,91.60493827160488,0)" xlink:href="#ae"/><use transform="matrix(0.08641975308641969,0,0,0.08641975308641969,101.88888888888884,0)" xlink:href="#ac"/><use transform="matrix(0.08641975308641969,0,0,0.08641975308641969,110.5308641975308,0)" xlink:href="#aj"/><use transform="matrix(0.08641975308641969,0,0,0.08641975308641969,126.08641975308635,0)" xlink:href="#ab"/><use transform="matrix(0.08641975308641969,0,0,0.08641975308641969,143.3703703703703,0)" xlink:href="#af"/></g><g id="p"><use transform="matrix(0.07407407407407404,0,0,0.07407407407407404,0,0)" xlink:href="#al"/><use transform="matrix(0.07407407407407404,0,0,0.07407407407407404,14.814814814814808,0)" xlink:href="#aj"/><use transform="matrix(0.07407407407407404,0,0,0.07407407407407404,28.148148148148135,0)" xlink:href="#X"/><use transform="matrix(0.07407407407407404,0,0,0.07407407407407404,35.555555555555536,0)" xlink:href="#ac"/><use transform="matrix(0.07407407407407404,0,0,0.07407407407407404,42.96296296296295,0)" xlink:href="#am"/><use transform="matrix(0.07407407407407404,0,0,0.07407407407407404,54.74074074074071,0)" xlink:href="#an"/></g><path fill="#333" d="M15-82c-4-69 47-101 113-83l-1-69-17-4v-12h68v234l18 4V0h-63l-4-9C77 23 5-9 15-82zm112-66c-43-16-64 17-61 65 2 33 3 67 32 67 12 0 22-3 29-8v-124" id="as"/><path fill="#333" d="M72-18c49 15 64-22 62-69-1-34-4-62-34-63-10-1-23 2-28 6v126zm33 22C77 4 48-3 21-8v-226l-16-4v-12h67c-1 31 2 66-2 94 11-8 28-14 47-14 51 0 70 31 69 83-1 55-26 91-81 91" id="at"/><path fill="#333" d="M88-24C86-8 77 5 59 5S30-7 30-24s11-29 29-29 27 13 29 29zM59-169c40 0 34 59 0 59-17 0-29-12-29-30 1-17 11-29 29-29" id="au"/><g id="q"><use transform="matrix(0.07407407407407404,0,0,0.07407407407407404,0,0)" xlink:href="#as"/><use transform="matrix(0.07407407407407404,0,0,0.07407407407407404,14.814814814814808,0)" xlink:href="#ac"/><use transform="matrix(0.07407407407407404,0,0,0.07407407407407404,22.222222222222214,0)" xlink:href="#af"/><use transform="matrix(0.07407407407407404,0,0,0.07407407407407404,32.59259259259258,0)" xlink:href="#ae"/><use transform="matrix(0.07407407407407404,0,0,0.07407407407407404,41.40740740740739,0)" xlink:href="#aa"/><use transform="matrix(0.07407407407407404,0,0,0.07407407407407404,53.18518518518516,0)" xlink:href="#ac"/><use transform="matrix(0.07407407407407404,0,0,0.07407407407407404,60.59259259259257,0)" xlink:href="#at"/><use transform="matrix(0.07407407407407404,0,0,0.07407407407407404,75.40740740740738,0)" xlink:href="#ao"/><use transform="matrix(0.07407407407407404,0,0,0.07407407407407404,90.22222222222219,0)" xlink:href="#ae"/><use transform="matrix(0.07407407407407404,0,0,0.07407407407407404,99.037037037037,0)" xlink:href="#ac"/><use transform="matrix(0.07407407407407404,0,0,0.07407407407407404,106.4444444444444,0)" xlink:href="#aj"/><use transform="matrix(0.07407407407407404,0,0,0.07407407407407404,119.77777777777773,0)" xlink:href="#ab"/><use transform="matrix(0.07407407407407404,0,0,0.07407407407407404,134.59259259259252,0)" xlink:href="#au"/></g><path fill="#333" d="M90-239c59 0 76 52 76 120S152 4 89 4C31 4 14-51 14-119c0-67 17-120 76-120zm12 218c20-45 19-147 0-194-29-20-34 20-36 53-1 47-4 109 11 141 6 10 21 10 25 0" id="av"/><path fill="#333" d="M46-135c59-12 121 1 121 65C167 6 84 13 17-4l-3-57h17c4 25 9 49 44 47 30-2 40-23 40-54 0-46-35-65-71-47H26v-121h123v39H46v62" id="aw"/><path fill="#333" d="M42-53c42-2 40 57 18 79C46 40 29 50 5 56V40c17-6 32-15 35-34-4-16-27-14-26-36 1-16 12-23 28-23" id="ax"/><g id="r"><use transform="matrix(0.07407407407407404,0,0,0.07407407407407404,0,0)" xlink:href="#av"/><use transform="matrix(0.07407407407407404,0,0,0.07407407407407404,13.333333333333327,0)" xlink:href="#Q"/><use transform="matrix(0.07407407407407404,0,0,0.07407407407407404,19.999999999999993,0)" xlink:href="#aw"/><use transform="matrix(0.07407407407407404,0,0,0.07407407407407404,33.333333333333314,0)" xlink:href="#ax"/></g><g id="s"><use transform="matrix(0.07407407407407404,0,0,0.07407407407407404,0,0)" xlink:href="#av"/><use transform="matrix(0.07407407407407404,0,0,0.07407407407407404,13.333333333333327,0)" xlink:href="#Q"/><use transform="matrix(0.07407407407407404,0,0,0.07407407407407404,19.999999999999993,0)" xlink:href="#aw"/></g><g id="t"><use transform="matrix(0.07407407407407406,0,0,0.07407407407407406,0,0)" xlink:href="#al"/><use transform="matrix(0.07407407407407406,0,0,0.07407407407407406,14.814814814814811,0)" xlink:href="#aj"/><use transform="matrix(0.07407407407407406,0,0,0.07407407407407406,28.14814814814814,0)" xlink:href="#X"/><use transform="matrix(0.07407407407407406,0,0,0.07407407407407406,35.55555555555555,0)" xlink:href="#ac"/><use transform="matrix(0.07407407407407406,0,0,0.07407407407407406,42.962962962962955,0)" xlink:href="#am"/><use transform="matrix(0.07407407407407406,0,0,0.07407407407407406,54.74074074074073,0)" xlink:href="#an"/></g><g id="u"><use transform="matrix(0.07407407407407406,0,0,0.07407407407407406,0,0)" xlink:href="#as"/><use transform="matrix(0.07407407407407406,0,0,0.07407407407407406,14.814814814814811,0)" xlink:href="#ac"/><use transform="matrix(0.07407407407407406,0,0,0.07407407407407406,22.222222222222218,0)" xlink:href="#af"/><use transform="matrix(0.07407407407407406,0,0,0.07407407407407406,32.59259259259259,0)" xlink:href="#ae"/><use transform="matrix(0.07407407407407406,0,0,0.07407407407407406,41.407407407407405,0)" xlink:href="#aa"/><use transform="matrix(0.07407407407407406,0,0,0.07407407407407406,53.18518518518517,0)" xlink:href="#ac"/><use transform="matrix(0.07407407407407406,0,0,0.07407407407407406,60.59259259259258,0)" xlink:href="#at"/><use transform="matrix(0.07407407407407406,0,0,0.07407407407407406,75.40740740740739,0)" xlink:href="#ao"/><use transform="matrix(0.07407407407407406,0,0,0.07407407407407406,90.2222222222222,0)" xlink:href="#ae"/><use transform="matrix(0.07407407407407406,0,0,0.07407407407407406,99.03703703703701,0)" xlink:href="#ac"/><use transform="matrix(0.07407407407407406,0,0,0.07407407407407406,106.44444444444441,0)" xlink:href="#aj"/><use transform="matrix(0.07407407407407406,0,0,0.07407407407407406,119.77777777777774,0)" xlink:href="#ab"/><use transform="matrix(0.07407407407407406,0,0,0.07407407407407406,134.59259259259255,0)" xlink:href="#au"/></g><g id="v"><use transform="matrix(0.07407407407407406,0,0,0.07407407407407406,0,0)" xlink:href="#av"/><use transform="matrix(0.07407407407407406,0,0,0.07407407407407406,13.33333333333333,0)" xlink:href="#Q"/><use transform="matrix(0.07407407407407406,0,0,0.07407407407407406,19.999999999999996,0)" xlink:href="#aw"/><use transform="matrix(0.07407407407407406,0,0,0.07407407407407406,33.33333333333333,0)" xlink:href="#ax"/></g><g id="w"><use transform="matrix(0.07407407407407406,0,0,0.07407407407407406,0,0)" xlink:href="#av"/><use transform="matrix(0.07407407407407406,0,0,0.07407407407407406,13.33333333333333,0)" xlink:href="#Q"/><use transform="matrix(0.07407407407407406,0,0,0.07407407407407406,19.999999999999996,0)" xlink:href="#aw"/></g><g id="x"><use transform="matrix(0.07407407407407404,0,0,0.07407407407407404,0,0)" xlink:href="#av"/><use transform="matrix(0.07407407407407404,0,0,0.07407407407407404,13.333333333333327,0)" xlink:href="#Q"/><use transform="matrix(0.07407407407407404,0,0,0.07407407407407404,19.999999999999993,0)" xlink:href="#aq"/><use transform="matrix(0.07407407407407404,0,0,0.07407407407407404,33.333333333333314,0)" xlink:href="#ax"/></g><g id="y"><use transform="matrix(0.07407407407407404,0,0,0.07407407407407404,0,0)" xlink:href="#av"/><use transform="matrix(0.07407407407407404,0,0,0.07407407407407404,13.333333333333327,0)" xlink:href="#Q"/><use transform="matrix(0.07407407407407404,0,0,0.07407407407407404,19.999999999999993,0)" xlink:href="#P"/><use transform="matrix(0.07407407407407404,0,0,0.07407407407407404,33.333333333333314,0)" xlink:href="#ax"/></g><path fill="#ef8d22" d="M90-239c59 0 76 52 76 120S152 4 89 4C31 4 14-51 14-119c0-67 17-120 76-120zm12 218c20-45 19-147 0-194-29-20-34 20-36 53-1 47-4 109 11 141 6 10 21 10 25 0" id="ay"/><path fill="#ef8d22" d="M74-24C74-7 62 5 45 5S16-7 16-24s12-29 29-29 29 12 29 29" id="az"/><path fill="#ef8d22" d="M36-168H21v-68h150v14L80 0H38l99-197H44" id="aA"/><g id="z"><use transform="matrix(0.07407407407407404,0,0,0.07407407407407404,0,0)" xlink:href="#ay"/><use transform="matrix(0.07407407407407404,0,0,0.07407407407407404,13.333333333333327,0)" xlink:href="#az"/><use transform="matrix(0.07407407407407404,0,0,0.07407407407407404,19.999999999999993,0)" xlink:href="#aA"/></g><g id="A"><use transform="matrix(0.07407407407407406,0,0,0.07407407407407406,0,0)" xlink:href="#av"/><use transform="matrix(0.07407407407407406,0,0,0.07407407407407406,13.33333333333333,0)" xlink:href="#Q"/><use transform="matrix(0.07407407407407406,0,0,0.07407407407407406,19.999999999999996,0)" xlink:href="#aq"/><use transform="matrix(0.07407407407407406,0,0,0.07407407407407406,33.33333333333333,0)" xlink:href="#ax"/></g><g id="B"><use transform="matrix(0.07407407407407406,0,0,0.07407407407407406,0,0)" xlink:href="#av"/><use transform="matrix(0.07407407407407406,0,0,0.07407407407407406,13.33333333333333,0)" xlink:href="#Q"/><use transform="matrix(0.07407407407407406,0,0,0.07407407407407406,19.999999999999996,0)" xlink:href="#ah"/><use transform="matrix(0.07407407407407406,0,0,0.07407407407407406,33.33333333333333,0)" xlink:href="#ax"/></g><path fill="#c92d39" d="M90-239c59 0 76 52 76 120S152 4 89 4C31 4 14-51 14-119c0-67 17-120 76-120zm12 218c20-45 19-147 0-194-29-20-34 20-36 53-1 47-4 109 11 141 6 10 21 10 25 0" id="aB"/><path fill="#c92d39" d="M74-24C74-7 62 5 45 5S16-7 16-24s12-29 29-29 29 12 29 29" id="aC"/><path fill="#c92d39" d="M64-135c49-21 105 0 105 62 0 50-26 77-73 77-64 0-82-53-84-120-2-89 54-142 143-115v54h-15c4-38-43-60-62-22-8 16-12 39-14 64zm54 65c3-37-19-64-54-46 3 43-3 92 31 102 23-3 21-26 23-56" id="aD"/><g id="C"><use transform="matrix(0.07407407407407406,0,0,0.07407407407407406,0,0)" xlink:href="#aB"/><use transform="matrix(0.07407407407407406,0,0,0.07407407407407406,13.33333333333333,0)" xlink:href="#aC"/><use transform="matrix(0.07407407407407406,0,0,0.07407407407407406,19.999999999999996,0)" xlink:href="#aD"/></g><path fill="#333" d="M76-116c0 86 71 126 135 84l6-39h16l-1 60C138 21 18 1 18-115c0-117 106-141 210-112l1 57h-16l-5-34c-13-9-32-16-54-16-60 0-78 42-78 104" id="aE"/><path fill="#333" d="M168-150L102 4H81L12-149c-7-2-15-4-12-16h85v11l-20 5 42 94 38-94-19-5v-11h54v11" id="aF"/><g id="D"><use transform="matrix(0.08641975308641969,0,0,0.08641975308641969,0,0)" xlink:href="#aE"/><use transform="matrix(0.08641975308641969,0,0,0.08641975308641969,22.3827160493827,0)" xlink:href="#aj"/><use transform="matrix(0.08641975308641969,0,0,0.08641975308641969,37.938271604938244,0)" xlink:href="#ab"/><use transform="matrix(0.08641975308641969,0,0,0.08641975308641969,55.222222222222186,0)" xlink:href="#aF"/><use transform="matrix(0.08641975308641969,0,0,0.08641975308641969,70.77777777777773,0)" xlink:href="#Y"/><use transform="matrix(0.08641975308641969,0,0,0.08641975308641969,84.51851851851846,0)" xlink:href="#aa"/><use transform="matrix(0.08641975308641969,0,0,0.08641975308641969,98.2592592592592,0)" xlink:href="#ad"/><use transform="matrix(0.08641975308641969,0,0,0.08641975308641969,113.81481481481474,0)" xlink:href="#Y"/><use transform="matrix(0.08641975308641969,0,0,0.08641975308641969,127.55555555555547,0)" xlink:href="#as"/></g><g id="E"><use transform="matrix(0.08641975308641969,0,0,0.08641975308641969,0,0)" xlink:href="#al"/><use transform="matrix(0.08641975308641969,0,0,0.08641975308641969,17.28395061728394,0)" xlink:href="#aj"/><use transform="matrix(0.08641975308641969,0,0,0.08641975308641969,32.839506172839485,0)" xlink:href="#X"/><use transform="matrix(0.08641975308641969,0,0,0.08641975308641969,41.48148148148145,0)" xlink:href="#ac"/><use transform="matrix(0.08641975308641969,0,0,0.08641975308641969,50.12345679012342,0)" xlink:href="#am"/><use transform="matrix(0.08641975308641969,0,0,0.08641975308641969,63.86419753086415,0)" xlink:href="#an"/></g><g id="F"><use transform="matrix(0.08641975308641969,0,0,0.08641975308641969,0,0)" xlink:href="#as"/><use transform="matrix(0.08641975308641969,0,0,0.08641975308641969,17.28395061728394,0)" xlink:href="#ac"/><use transform="matrix(0.08641975308641969,0,0,0.08641975308641969,25.92592592592591,0)" xlink:href="#af"/><use transform="matrix(0.08641975308641969,0,0,0.08641975308641969,38.02469135802467,0)" xlink:href="#ae"/><use transform="matrix(0.08641975308641969,0,0,0.08641975308641969,48.30864197530861,0)" xlink:href="#aa"/><use transform="matrix(0.08641975308641969,0,0,0.08641975308641969,62.04938271604934,0)" xlink:href="#ac"/><use transform="matrix(0.08641975308641969,0,0,0.08641975308641969,70.69135802469131,0)" xlink:href="#at"/><use transform="matrix(0.08641975308641969,0,0,0.08641975308641969,87.97530864197525,0)" xlink:href="#ao"/><use transform="matrix(0.08641975308641969,0,0,0.08641975308641969,105.25925925925918,0)" xlink:href="#ae"/><use transform="matrix(0.08641975308641969,0,0,0.08641975308641969,115.54320987654313,0)" xlink:href="#ac"/><use transform="matrix(0.08641975308641969,0,0,0.08641975308641969,124.1851851851851,0)" xlink:href="#aj"/><use transform="matrix(0.08641975308641969,0,0,0.08641975308641969,139.74074074074065,0)" xlink:href="#ab"/><use transform="matrix(0.08641975308641969,0,0,0.08641975308641969,157.0246913580246,0)" xlink:href="#af"/></g><g id="G"><use transform="matrix(0.07407407407407404,0,0,0.07407407407407404,0,0)" xlink:href="#aj"/><use transform="matrix(0.07407407407407404,0,0,0.07407407407407404,13.333333333333327,0)" xlink:href="#ao"/><use transform="matrix(0.07407407407407404,0,0,0.07407407407407404,28.148148148148135,0)" xlink:href="#ae"/><use transform="matrix(0.07407407407407404,0,0,0.07407407407407404,36.96296296296295,0)" xlink:href="#al"/><use transform="matrix(0.07407407407407404,0,0,0.07407407407407404,51.77777777777776,0)" xlink:href="#ao"/><use transform="matrix(0.07407407407407404,0,0,0.07407407407407404,66.59259259259257,0)" xlink:href="#ae"/></g><path fill="#333" d="M107-230c-31-13-29 30-29 65h34v18H78v131l27 4V0H10v-12l18-4v-131H3v-12l25-7c-8-66 31-98 95-84v39h-11" id="aG"/><g id="H"><use transform="matrix(0.07407407407407404,0,0,0.07407407407407404,0,0)" xlink:href="#Z"/><use transform="matrix(0.07407407407407404,0,0,0.07407407407407404,13.333333333333327,0)" xlink:href="#aG"/><use transform="matrix(0.07407407407407404,0,0,0.07407407407407404,22.148148148148138,0)" xlink:href="#ae"/><use transform="matrix(0.07407407407407404,0,0,0.07407407407407404,30.96296296296295,0)" xlink:href="#Y"/><use transform="matrix(0.07407407407407404,0,0,0.07407407407407404,42.74074074074072,0)" xlink:href="#aa"/></g><path fill="#333" d="M203-218l-32-5v-13h84v13l-30 5V0h-21L59-189v171l32 5V0H7v-13l30-5v-200l-30-5v-13h81L203-85v-133" id="aH"/><use transform="matrix(0.07407407407407404,0,0,0.07407407407407404,0,0)" xlink:href="#aH" id="I"/><g id="J"><use transform="matrix(0.07407407407407404,0,0,0.07407407407407404,0,0)" xlink:href="#X"/><use transform="matrix(0.07407407407407404,0,0,0.07407407407407404,7.407407407407404,0)" xlink:href="#Y"/><use transform="matrix(0.07407407407407404,0,0,0.07407407407407404,19.185185185185176,0)" xlink:href="#Z"/><use transform="matrix(0.07407407407407404,0,0,0.07407407407407404,32.518518518518505,0)" xlink:href="#aa"/><use transform="matrix(0.07407407407407404,0,0,0.07407407407407404,44.296296296296276,0)" xlink:href="#ab"/><use transform="matrix(0.07407407407407404,0,0,0.07407407407407404,59.111111111111086,0)" xlink:href="#ac"/><use transform="matrix(0.07407407407407404,0,0,0.07407407407407404,66.51851851851849,0)" xlink:href="#ab"/><use transform="matrix(0.07407407407407404,0,0,0.07407407407407404,81.3333333333333,0)" xlink:href="#ad"/></g><g id="K"><use transform="matrix(0.07407407407407404,0,0,0.07407407407407404,0,0)" xlink:href="#ac"/><use transform="matrix(0.07407407407407404,0,0,0.07407407407407404,7.407407407407404,0)" xlink:href="#ae"/><use transform="matrix(0.07407407407407404,0,0,0.07407407407407404,16.222222222222214,0)" xlink:href="#Y"/><use transform="matrix(0.07407407407407404,0,0,0.07407407407407404,27.999999999999982,0)" xlink:href="#aa"/><use transform="matrix(0.07407407407407404,0,0,0.07407407407407404,39.77777777777776,0)" xlink:href="#Z"/><use transform="matrix(0.07407407407407404,0,0,0.07407407407407404,53.111111111111086,0)" xlink:href="#ae"/><use transform="matrix(0.07407407407407404,0,0,0.07407407407407404,61.9259259259259,0)" xlink:href="#ac"/><use transform="matrix(0.07407407407407404,0,0,0.07407407407407404,69.3333333333333,0)" xlink:href="#aj"/><use transform="matrix(0.07407407407407404,0,0,0.07407407407407404,82.66666666666663,0)" xlink:href="#ab"/></g><path fill="#333" d="M126-114c3-31-27-37-49-25v123l15 4V0H10v-12l16-4v-133l-16-5v-11h64l2 14c24-16 81-33 96 3 30-24 105-39 105 27v105l17 4V0h-82v-12l14-4v-98c4-33-27-37-51-24 5 35 0 82 2 122l17 4V0h-83v-12l15-4v-98" id="aI"/><g id="L"><use transform="matrix(0.07407407407407404,0,0,0.07407407407407404,0,0)" xlink:href="#am"/><use transform="matrix(0.07407407407407404,0,0,0.07407407407407404,11.777777777777773,0)" xlink:href="#aj"/><use transform="matrix(0.07407407407407404,0,0,0.07407407407407404,25.1111111111111,0)" xlink:href="#aI"/><use transform="matrix(0.07407407407407404,0,0,0.07407407407407404,47.25925925925924,0)" xlink:href="#at"/><use transform="matrix(0.07407407407407404,0,0,0.07407407407407404,62.07407407407405,0)" xlink:href="#ac"/><use transform="matrix(0.07407407407407404,0,0,0.07407407407407404,69.48148148148145,0)" xlink:href="#ab"/><use transform="matrix(0.07407407407407404,0,0,0.07407407407407404,84.29629629629626,0)" xlink:href="#Z"/><use transform="matrix(0.07407407407407404,0,0,0.07407407407407404,97.62962962962959,0)" xlink:href="#ae"/><use transform="matrix(0.07407407407407404,0,0,0.07407407407407404,106.4444444444444,0)" xlink:href="#ac"/><use transform="matrix(0.07407407407407404,0,0,0.07407407407407404,113.8518518518518,0)" xlink:href="#aj"/><use transform="matrix(0.07407407407407404,0,0,0.07407407407407404,127.18518518518513,0)" xlink:href="#ab"/><use transform="matrix(0.07407407407407404,0,0,0.07407407407407404,141.99999999999994,0)" xlink:href="#af"/></g><g id="M"><use transform="matrix(0.07407407407407404,0,0,0.07407407407407404,0,0)" xlink:href="#ac"/><use transform="matrix(0.07407407407407404,0,0,0.07407407407407404,7.407407407407404,0)" xlink:href="#ab"/><use transform="matrix(0.07407407407407404,0,0,0.07407407407407404,22.222222222222214,0)" xlink:href="#am"/><use transform="matrix(0.07407407407407404,0,0,0.07407407407407404,33.999999999999986,0)" xlink:href="#aa"/><use transform="matrix(0.07407407407407404,0,0,0.07407407407407404,45.25925925925924,0)" xlink:href="#Y"/><use transform="matrix(0.07407407407407404,0,0,0.07407407407407404,57.03703703703701,0)" xlink:href="#Z"/><use transform="matrix(0.07407407407407404,0,0,0.07407407407407404,70.37037037037034,0)" xlink:href="#af"/><use transform="matrix(0.07407407407407404,0,0,0.07407407407407404,80.7407407407407,0)" xlink:href="#Y"/><use transform="matrix(0.07407407407407404,0,0,0.07407407407407404,92.51851851851848,0)" xlink:href="#as"/></g><g id="N"><use transform="matrix(0.07407407407407404,0,0,0.07407407407407404,0,0)" xlink:href="#al"/><use transform="matrix(0.07407407407407404,0,0,0.07407407407407404,14.814814814814808,0)" xlink:href="#aj"/><use transform="matrix(0.07407407407407404,0,0,0.07407407407407404,28.148148148148135,0)" xlink:href="#X"/><use transform="matrix(0.07407407407407404,0,0,0.07407407407407404,35.555555555555536,0)" xlink:href="#ac"/><use transform="matrix(0.07407407407407404,0,0,0.07407407407407404,42.96296296296295,0)" xlink:href="#am"/><use transform="matrix(0.07407407407407404,0,0,0.07407407407407404,54.74074074074071,0)" xlink:href="#an"/></g><g id="O"><use transform="matrix(0.07407407407407404,0,0,0.07407407407407404,0,0)" xlink:href="#am"/><use transform="matrix(0.07407407407407404,0,0,0.07407407407407404,11.777777777777773,0)" xlink:href="#aj"/><use transform="matrix(0.07407407407407404,0,0,0.07407407407407404,25.1111111111111,0)" xlink:href="#aI"/><use transform="matrix(0.07407407407407404,0,0,0.07407407407407404,47.25925925925924,0)" xlink:href="#at"/><use transform="matrix(0.07407407407407404,0,0,0.07407407407407404,62.07407407407405,0)" xlink:href="#ac"/><use transform="matrix(0.07407407407407404,0,0,0.07407407407407404,69.48148148148145,0)" xlink:href="#ab"/><use transform="matrix(0.07407407407407404,0,0,0.07407407407407404,84.29629629629626,0)" xlink:href="#Z"/><use transform="matrix(0.07407407407407404,0,0,0.07407407407407404,97.62962962962959,0)" xlink:href="#ae"/><use transform="matrix(0.07407407407407404,0,0,0.07407407407407404,106.4444444444444,0)" xlink:href="#ac"/><use transform="matrix(0.07407407407407404,0,0,0.07407407407407404,113.8518518518518,0)" xlink:href="#aj"/><use transform="matrix(0.07407407407407404,0,0,0.07407407407407404,127.18518518518513,0)" xlink:href="#ab"/><use transform="matrix(0.07407407407407404,0,0,0.07407407407407404,141.99999999999994,0)" xlink:href="#af"/></g></defs></g></svg>