<?xml version="1.0" encoding="utf-8"?>
<!-- Generator: Adobe Illustrator 17.0.0, SVG Export Plug-In . SVG Version: 6.00 Build 0)  -->
<!DOCTYPE svg PUBLIC "-//W3C//DTD SVG 1.1//EN" "http://www.w3.org/Graphics/SVG/1.1/DTD/svg11.dtd">
<svg version="1.1" id="Layer_1" xmlns="http://www.w3.org/2000/svg" xmlns:xlink="http://www.w3.org/1999/xlink" x="0px" y="0px"
	 width="1600px" height="1200px" viewBox="0 0 1600 1200" enable-background="new 0 0 1600 1200" xml:space="preserve">
<g id="XMLID_1144_">
	<g id="XMLID_677_">
		<path id="XMLID_713_" fill="#D9083C" d="M1376.563,514.017c-6.471,0-12.333,2.623-16.573,6.865l0,0l-202.629,202.629
			c-11.14-5.932-23.838-9.305-37.317-9.305c-13.437,0-26.1,3.356-37.216,9.253L980.872,621.504
			c6.016-11.203,9.438-23.995,9.438-37.575c0-43.941-35.747-79.688-79.688-79.688c-43.941,0-79.688,35.747-79.688,79.688
			c0,13.109,3.202,25.474,8.831,36.394l-58.65,58.652c-11.081-5.848-23.688-9.178-37.066-9.178c-13.533,0-26.285,3.401-37.46,9.38
			l-154.65-154.65c5.252-10.622,8.22-22.568,8.22-35.196c0-43.941-35.747-79.688-79.688-79.688s-79.688,35.747-79.688,79.688
			c0,14.273,3.792,27.673,10.392,39.274L246.875,692.899V23.438C246.875,10.493,236.38,0,223.438,0S200,10.493,200,23.438V749.47
			c0,0.007,0,0.016,0,0.023v427.069c0,12.942,10.495,23.438,23.438,23.438h1153.125c12.942,0,23.438-10.495,23.438-23.438V537.455
			C1400,524.51,1389.505,514.017,1376.563,514.017z M1152.856,793.894c0,18.094-14.719,32.813-32.813,32.813
			s-32.813-14.719-32.813-32.813s14.719-32.813,32.813-32.813S1152.856,775.8,1152.856,793.894z M503.907,565.493
			c5.566-1.716,10.861-4.041,15.837-6.87l153.795,153.795c-5.85,11.081-9.178,23.688-9.178,37.066
			c0,35.787,23.714,66.134,56.25,76.165v327.476H503.907L503.907,565.493L503.907,565.493z M767.485,825.649
			c32.536-10.031,56.25-40.378,56.25-76.165c0-13.535-3.401-26.285-9.377-37.46l58.139-58.139c4.638,2.538,9.553,4.627,14.688,6.209
			v493.031H767.487V825.649H767.485z M910.62,551.116c18.094,0,32.813,14.719,32.813,32.813s-14.719,32.813-32.813,32.813
			s-32.813-14.719-32.813-32.813S892.529,551.116,910.62,551.116z M776.86,749.482c0,18.094-14.719,32.813-32.813,32.813
			s-32.813-14.719-32.813-32.813s14.719-32.813,32.813-32.813S776.86,731.391,776.86,749.482z M480.47,456.513
			c18.094,0,32.812,14.719,32.812,32.813s-14.719,32.813-32.812,32.813s-32.813-14.719-32.813-32.813
			S462.376,456.513,480.47,456.513z M246.875,759.192l198.396-198.396c3.764,1.861,7.69,3.443,11.761,4.697v587.632H246.875V759.192
			z M934.058,1153.125V660.094c4.706-1.451,9.22-3.34,13.512-5.595l102.087,102.084c-5.927,11.14-9.302,23.836-9.302,37.31
			c0,35.787,23.714,66.134,56.25,76.165v131.894c0,12.942,10.495,23.438,23.438,23.438c12.942,0,23.438-10.495,23.438-23.438
			V870.059c32.536-10.031,56.25-40.378,56.25-76.165c0-13.434-3.356-26.093-9.251-37.209l162.647-162.647v559.088H934.058z"/>
		<path id="XMLID_721_" fill="#D9083C" d="M1120.039,1064.063c-6.164,0-12.211,2.505-16.57,6.867
			c-4.357,4.359-6.867,10.406-6.867,16.57s2.508,12.211,6.867,16.568c4.359,4.359,10.406,6.87,16.57,6.87s12.211-2.508,16.57-6.87
			c4.383-4.357,6.867-10.404,6.867-16.568s-2.484-12.211-6.867-16.57C1132.25,1066.568,1126.203,1064.063,1120.039,1064.063z"/>
		<path id="XMLID_722_" fill="#D9083C" d="M382.946,251.306L483.92,150.333l247.366,247.366c9.155,9.152,23.991,9.152,33.148,0
			l142.252-142.254l200.667,200.667c4.577,4.577,10.575,6.865,16.573,6.865c5.998,0,11.995-2.288,16.573-6.865l193.847-193.847
			c1.5,8.737,7.894,16.249,17.02,18.694c2.03,0.544,4.071,0.804,6.08,0.804c10.348,0,19.819-6.905,22.624-17.377l19.132-71.398
			c2.168-8.088-0.145-16.718-6.066-22.638c-5.918-5.92-14.543-8.238-22.638-6.066l-71.398,19.132
			c-12.504,3.349-19.924,16.202-16.573,28.706c2.44,9.113,9.938,15.499,18.659,17.011l-177.26,177.263l-200.667-200.67
			c-9.155-9.15-23.991-9.15-33.148,0L747.859,347.981L500.492,100.615c-9.155-9.155-23.991-9.155-33.148,0L349.798,218.161
			c-9.152,9.152-9.152,23.993,0,33.145C358.953,260.463,373.789,260.463,382.946,251.306z"/>
		<path id="XMLID_723_" fill="#D9083C" d="M311.656,312.891c6.164,0,12.211-2.484,16.57-6.867c4.357-4.359,6.867-10.406,6.867-16.57
			c0-6.164-2.508-12.211-6.867-16.57s-10.406-6.867-16.57-6.867s-12.211,2.508-16.594,6.867c-4.357,4.359-6.844,10.406-6.844,16.57
			c0,6.164,2.487,12.211,6.844,16.57C299.445,310.406,305.492,312.891,311.656,312.891z"/>
	</g>
</g>
</svg>
