<?xml version="1.0" encoding="utf-8"?>
<!-- Generator: Adobe Illustrator 17.0.0, SVG Export Plug-In . SVG Version: 6.00 Build 0)  -->
<!DOCTYPE svg PUBLIC "-//W3C//DTD SVG 1.1//EN" "http://www.w3.org/Graphics/SVG/1.1/DTD/svg11.dtd">
<svg version="1.1" id="Layer_1" xmlns="http://www.w3.org/2000/svg" xmlns:xlink="http://www.w3.org/1999/xlink" x="0px" y="0px"
	 width="1600px" height="1200px" viewBox="0 0 1600 1200" enable-background="new 0 0 1600 1200" xml:space="preserve">
<g id="XMLID_1334_">
	<g id="XMLID_382_">
		<path id="XMLID_385_" fill="#D9083C" d="M1400,591.798c0-31.878-6.204-62.966-18.44-92.399l-37.352-89.858
			c-21.918-52.727-54.014-99.409-95.4-138.751c-24.497-23.289-50.99-44.868-78.738-64.133c-10.916-7.578-25.912-4.875-33.49,6.04
			c-7.578,10.916-4.875,25.912,6.04,33.49c25.737,17.87,50.306,37.884,73.027,59.484c25.542,24.281,47.053,51.743,64.299,81.972
			c-43.537,13.416-76.206,51.856-81.082,98.466l-71.225,40.724c-11.536,6.596-15.543,21.297-8.947,32.836
			c4.442,7.77,12.559,12.124,20.912,12.124c4.05,0,8.155-1.023,11.921-3.177l82.716-47.291c7.496-4.286,12.121-12.256,12.121-20.89
			v-2.199c0-32.963,23.725-60.471,54.989-66.391l35.762,86.032c9.789,23.549,14.754,48.419,14.754,73.925
			c0,106.195-86.395,192.59-192.593,192.59h-17.213c-26.93,0-48.841-21.908-48.841-48.841s21.908-48.841,48.841-48.841
			c13.291,0,24.064-10.773,24.064-24.064s-10.774-24.064-24.064-24.064c-53.468,0-96.969,43.501-96.969,96.969
			c0,17.803,4.844,34.486,13.25,48.841H627.541c-36.585,0-69.521-15.89-92.293-41.121c0.012-0.31,0.048-0.614,0.048-0.927
			c0-27.698,22.534-50.232,50.232-50.232h76.064c13.291,0,24.064-10.773,24.064-24.064s-10.774-24.064-24.064-24.064h-76.064
			c-32.831,0-61.934,16.183-79.811,40.976c-1.641-8.047-2.507-16.373-2.507-24.897c0-68.556,55.776-124.332,124.332-124.332h47.327
			c13.291,0,24.064-10.774,24.064-24.064c0-13.291-10.773-24.064-24.064-24.064h-47.327c-83.847,0-153.876,60.158-169.277,139.572
			h-35.935c-96.055,0-174.2-78.146-174.2-174.2c0-72.284,43.508-135.977,110.839-162.267l23.884-9.327
			c10.55,10.846,16.361,25.109,16.361,40.269c0,15.437-6.011,29.948-16.927,40.861c-9.397,9.397-9.399,24.634,0,34.032
			c4.7,4.7,10.858,7.048,17.016,7.048s12.318-2.351,17.016-7.048c9.18-9.18,16.443-19.762,21.643-31.245h127.646
			c22.765,0,41.287,18.522,41.287,41.287c0,13.291,10.773,24.064,24.064,24.064s24.064-10.774,24.064-24.064
			c0-49.305-40.11-89.415-89.415-89.415H447.233c-0.91-22.016-8.528-42.822-21.857-60.083
			c73.446-54.334,158.686-91.6,248.01-109.203c-23.287,33.865-35.856,73.901-35.856,115.886c0,13.291,10.774,24.064,24.064,24.064
			c13.291,0,24.064-10.774,24.064-24.064c0-41.939,16.332-81.368,45.987-111.025l14.761-14.759
			c15.014-1.121,30.08-1.721,45.166-1.721c66.901,0,132.964,10.822,196.356,32.162c12.6,4.243,26.244-2.534,30.484-15.129
			c4.24-12.595-2.534-26.244-15.129-30.484c-68.349-23.01-139.579-34.676-211.714-34.676c-144.64,0-287.622,48.326-402.608,136.076
			l-8.355,6.375l-39.145,15.286c-41.857,16.344-77.376,44.593-102.723,81.698C213.397,364.673,200,408.037,200,452.969
			c0,122.592,99.736,222.329,222.329,222.329h33.464c7.746,87.979,81.794,157.218,171.748,157.218h116.463l145.566,266.811
			c4.216,7.729,12.318,12.537,21.124,12.537h92.647c7.118,0,13.871-3.15,18.443-8.605c4.572-5.455,6.495-12.653,5.253-19.66
			l-20.635-116.324h83.986c91.068,0,166.062-69.993,174.104-159.001C1344.645,769.16,1400,686.825,1400,591.798z M924.978,1063.739
			L798.829,832.516h69.353v25.248c0,22.548,6.825,44.237,19.737,62.718c16.491,23.602,41.479,39.525,69.254,44.832l17.459,98.425
			H924.978z M1090.388,919.147H977.693c-20.036,0-38.847-9.806-50.321-26.227c-7.236-10.36-11.062-22.514-11.062-35.155v-25.248
			h242.969c18.245,0,36.022-2.053,53.114-5.917C1197.435,879.92,1148.424,919.147,1090.388,919.147z"/>
		<path id="XMLID_387_" fill="#D9083C" d="M1072.845,204.29c3.569,1.872,7.39,2.758,11.158,2.758
			c8.661,0,17.028-4.688,21.331-12.889c6.172-11.77,1.639-26.317-10.131-32.489l-0.493-0.255
			c-11.84-6.016-26.365-1.311-32.386,10.535S1060.996,198.269,1072.845,204.29z"/>
		<path id="XMLID_390_" fill="#D9083C" d="M917.682,228.638c1.085-11.726-6.478-22.514-17.87-25.496
			c-11.394-2.982-23.27,2.719-28.068,13.474L744.471,501.829c-3.323,7.445-2.649,16.065,1.788,22.904
			c4.437,6.839,12.035,10.966,20.187,10.966h110.661L847.152,662.51c-2.664,11.274,3.083,22.844,13.673,27.534
			c3.15,1.396,6.464,2.062,9.734,2.062c7.729,0,15.237-3.732,19.846-10.441l178.019-259.144c5.058-7.364,5.621-16.927,1.458-24.832
			c-4.161-7.907-12.359-12.857-21.294-12.857h-145.35L917.682,228.638z M1002.869,432.962l-79.311,115.453l7.38-31.245
			c1.692-7.159,0.014-14.696-4.548-20.464c-4.563-5.768-11.515-9.132-18.871-9.132H803.536l52.818-118.362l-3.463,37.473
			c-0.623,6.738,1.62,13.428,6.18,18.428c4.56,5.001,11.014,7.85,17.781,7.85H1002.869z"/>
		<path id="XMLID_784_" fill="#D9083C" d="M764.576,651.015c-4.476,4.476-7.051,10.685-7.051,17.037
			c0,6.329,2.575,12.537,7.051,17.013c4.476,4.476,10.66,7.051,17.013,7.051c6.329,0,12.537-2.575,17.013-7.051
			c4.476-4.476,7.051-10.685,7.051-17.013c0-6.329-2.575-12.537-7.051-17.037c-4.476-4.476-10.684-7.027-17.013-7.027
			C775.237,643.988,769.052,646.539,764.576,651.015z"/>
	</g>
</g>
</svg>
