<?xml version="1.0" encoding="utf-8"?>
<!-- Generator: Adobe Illustrator 17.0.0, SVG Export Plug-In . SVG Version: 6.00 Build 0)  -->
<!DOCTYPE svg PUBLIC "-//W3C//DTD SVG 1.1//EN" "http://www.w3.org/Graphics/SVG/1.1/DTD/svg11.dtd">
<svg version="1.1" id="Layer_1" xmlns="http://www.w3.org/2000/svg" xmlns:xlink="http://www.w3.org/1999/xlink" x="0px" y="0px"
	 width="1600px" height="1200px" viewBox="0 0 1600 1200" enable-background="new 0 0 1600 1200" xml:space="preserve">
<g id="XMLID_821_">
	<g id="XMLID_464_">
		<path id="XMLID_465_" fill="#D9083C" d="M435.148,740.625c-6.164,0-12.211,2.508-16.57,6.867
			c-4.359,4.359-6.867,10.406-6.867,16.57s2.505,12.211,6.867,16.57c4.362,4.359,10.406,6.867,16.57,6.867
			s12.211-2.508,16.568-6.867c4.359-4.359,6.87-10.406,6.87-16.57s-2.508-12.211-6.87-16.57
			C447.359,743.133,441.313,740.625,435.148,740.625z"/>
		<path id="XMLID_468_" fill="#D9083C" d="M1376.563,740.625V23.438c0-12.945-10.495-23.438-23.438-23.438H246.875
			c-12.942,0-23.438,10.493-23.438,23.438v717.188c-12.942,0-23.438,10.493-23.438,23.438v131.25
			c0,12.945,10.495,23.438,23.438,23.438h356.55l-134.925,246.563c-3.973,7.261-3.823,16.08,0.398,23.201
			c4.221,7.123,11.883,11.487,20.163,11.487h124.219c8.564,0,16.448-4.673,20.559-12.188l109.91-200.848v189.598
			c0,12.945,10.495,23.438,23.438,23.438h112.5c12.942,0,23.438-10.493,23.438-23.438V986.965l109.91,200.848
			c4.113,7.514,11.995,12.188,20.559,12.188h124.219c8.278,0,15.942-4.366,20.163-11.487c4.221-7.12,4.371-15.94,0.398-23.201
			L1020.013,918.75h356.55c12.942,0,23.438-10.493,23.438-23.438v-131.25C1400,751.118,1389.505,740.625,1376.563,740.625z
			 M575.952,1153.125h-70.784L633.423,918.75h70.784L575.952,1153.125z M832.813,1153.125h-65.625V918.75h65.625V1153.125z
			 M1094.832,1153.125h-70.784L895.794,918.75h70.784L1094.832,1153.125z M1353.125,871.875H246.875V787.5h83.203
			c12.942,0,23.438-10.493,23.438-23.438s-10.495-23.438-23.438-23.438h-59.766V46.875h1059.375v693.75H528.125
			c-12.942,0-23.438,10.493-23.438,23.438s10.495,23.438,23.438,23.438h825V871.875z"/>
		<path id="XMLID_474_" fill="#D9083C" d="M551.563,534.375c0-49.109-39.954-89.063-89.063-89.063s-89.063,39.954-89.063,89.063
			s39.954,89.063,89.063,89.063S551.563,583.484,551.563,534.375z M462.5,576.563c-23.262,0-42.188-18.926-42.188-42.188
			s18.926-42.188,42.188-42.188s42.188,18.926,42.188,42.188S485.762,576.563,462.5,576.563z"/>
		<path id="XMLID_475_" fill="#D9083C" d="M1212.5,510.938H743.75c-12.942,0-23.438,10.493-23.438,23.438
			s10.495,23.438,23.438,23.438h468.75c12.942,0,23.438-10.493,23.438-23.438S1225.442,510.938,1212.5,510.938z"/>
		<path id="XMLID_476_" fill="#D9083C" d="M642.969,557.813c6.164,0,12.211-2.508,16.568-6.867c4.359-4.359,6.87-10.406,6.87-16.57
			s-2.508-12.211-6.87-16.57c-4.357-4.359-10.404-6.867-16.568-6.867s-12.211,2.508-16.57,6.867s-6.867,10.406-6.867,16.57
			s2.505,12.211,6.867,16.57S636.805,557.813,642.969,557.813z"/>
		<path id="XMLID_479_" fill="#D9083C" d="M462.5,360.938c49.109,0,89.063-39.954,89.063-89.063s-39.954-89.063-89.063-89.063
			s-89.063,39.954-89.063,89.063S413.391,360.938,462.5,360.938z M462.5,229.688c23.262,0,42.188,18.926,42.188,42.188
			s-18.926,42.188-42.188,42.188s-42.188-18.926-42.188-42.188S439.238,229.688,462.5,229.688z"/>
		<path id="XMLID_480_" fill="#D9083C" d="M642.969,295.313H1212.5c12.942,0,23.438-10.493,23.438-23.438
			s-10.495-23.438-23.438-23.438H642.969c-12.942,0-23.438,10.493-23.438,23.438S630.027,295.313,642.969,295.313z"/>
	</g>
</g>
</svg>
