<?xml version="1.0" encoding="utf-8"?>
<!-- Generator: Adobe Illustrator 17.0.0, SVG Export Plug-In . SVG Version: 6.00 Build 0)  -->
<!DOCTYPE svg PUBLIC "-//W3C//DTD SVG 1.1//EN" "http://www.w3.org/Graphics/SVG/1.1/DTD/svg11.dtd">
<svg version="1.1" id="Layer_1" xmlns="http://www.w3.org/2000/svg" xmlns:xlink="http://www.w3.org/1999/xlink" x="0px" y="0px"
	 width="1600px" height="1200px" viewBox="0 0 1600 1200" enable-background="new 0 0 1600 1200" xml:space="preserve">
<g id="XMLID_2819_">
	<g id="XMLID_1276_">
		<path id="XMLID_1472_" fill="#D9083C" d="M830.502,240.546l-10.073-19.071c-4.059-7.683-12.035-12.49-20.723-12.49
			s-16.664,4.807-20.723,12.49l-10.073,19.071c-52.629,99.635-122.259,187.835-206.963,262.151
			c-6.977,6.12-9.684,15.783-6.902,24.64l80.602,256.673v85.521h-26.953c-12.945,0-23.438,10.495-23.438,23.438
			s10.493,23.438,23.438,23.438h26.953v260.156c0,12.942,10.493,23.438,23.438,23.438h281.25c12.945,0,23.438-10.495,23.438-23.438
			V916.406h26.953c12.945,0,23.438-10.495,23.438-23.438s-10.493-23.438-23.438-23.438H963.77v-85.523l80.602-256.673
			c2.782-8.855,0.075-18.518-6.902-24.64C952.761,428.379,883.128,340.181,830.502,240.546z M800,525.78
			c12.923,0,23.438,10.514,23.438,23.438S812.923,572.655,800,572.655s-23.438-10.514-23.438-23.438S787.077,525.78,800,525.78z
			 M916.89,1153.125h-65.625v-64.453c0-12.942-10.493-23.438-23.438-23.438c-12.945,0-23.438,10.495-23.438,23.438v64.453H682.515
			V916.406H916.89V1153.125z M682.515,869.531v-65.677H916.89v65.677H682.515z M923.122,756.98H676.283l-71.986-229.245
			c66.921-60.593,124.523-129.654,171.97-205.983V483.04c-27.127,9.757-46.58,35.735-46.58,66.178
			c0,38.77,31.542,70.313,70.313,70.313s70.313-31.542,70.313-70.313c0-30.663-19.739-56.791-47.173-66.382V321.75
			c47.447,76.331,105.047,145.392,171.97,205.983L923.122,756.98z"/>
		<path id="XMLID_1518_" fill="#D9083C" d="M1203.957,168.698h121.823c12.945,0,23.438-10.495,23.438-23.438V23.438
			c0-12.942-10.493-23.438-23.438-23.438h-121.823c-12.945,0-23.438,10.495-23.438,23.438v37.474h-299.51
			C870.828,25.772,838.377,0,800,0s-70.828,25.772-81.009,60.912H419.48V23.438C419.48,10.495,408.987,0,396.043,0H274.22
			c-12.945,0-23.438,10.495-23.438,23.438v121.823c0,12.942,10.493,23.437,23.438,23.437h121.823
			c12.945,0,23.438-10.495,23.438-23.438v-37.474h171.82c-141.094,67.012-245.473,199.87-272.613,358.704
			c-38.665,7.673-67.905,41.845-67.905,82.727c0,46.512,37.84,84.349,84.349,84.349s84.349-37.84,84.349-84.349
			c0-35.777-22.402-66.401-53.906-78.64c32.505-180.605,175.615-323.33,355.784-355.788c12.237,31.505,42.862,53.909,78.642,53.909
			c35.777,0,66.403-22.402,78.642-53.906c179.791,32.416,323.372,176.18,355.784,355.788c-31.505,12.239-53.904,42.863-53.904,78.64
			c0,46.512,37.84,84.349,84.349,84.349c46.512,0,84.349-37.84,84.349-84.349c0-40.882-29.243-75.056-67.908-82.727
			c-16.894-99.232-63.345-189.387-134.85-261.377c-40.404-40.676-86.667-73.383-137.137-97.324h171.195v37.472
			C1180.52,158.203,1191.015,168.698,1203.957,168.698z M372.605,121.823h-74.948V46.875h74.948V121.823L372.605,121.823z
			 M335.131,586.692c-20.663,0-37.474-16.812-37.474-37.474c0-20.663,16.812-37.472,37.474-37.472s37.474,16.809,37.474,37.472
			C372.605,569.88,355.794,586.692,335.131,586.692z M1302.343,549.218c0,20.662-16.812,37.474-37.474,37.474
			c-20.663,0-37.474-16.812-37.474-37.474s16.809-37.472,37.474-37.472C1285.534,511.746,1302.343,528.555,1302.343,549.218z
			 M800,121.823c-20.662,0-37.474-16.809-37.474-37.472S779.338,46.875,800,46.875s37.474,16.812,37.474,37.474
			S820.663,121.823,800,121.823z M1227.395,46.875h74.948v74.948h-74.948V46.875z"/>
		<path id="XMLID_1634_" fill="#D9083C" d="M827.827,1024.125c6.164,0,12.211-2.508,16.57-6.867
			c4.359-4.359,6.867-10.406,6.867-16.57c0-6.164-2.508-12.211-6.867-16.57c-4.359-4.357-10.406-6.867-16.57-6.867
			c-6.164,0-12.211,2.508-16.57,6.867c-4.359,4.359-6.867,10.406-6.867,16.57c0,6.164,2.508,12.211,6.867,16.57
			C815.616,1021.617,821.663,1024.125,827.827,1024.125z"/>
	</g>
</g>
</svg>
