<?xml version="1.0" encoding="utf-8"?>
<!-- Generator: Adobe Illustrator 17.0.0, SVG Export Plug-In . SVG Version: 6.00 Build 0)  -->
<!DOCTYPE svg PUBLIC "-//W3C//DTD SVG 1.1//EN" "http://www.w3.org/Graphics/SVG/1.1/DTD/svg11.dtd">
<svg version="1.1" id="Layer_1" xmlns="http://www.w3.org/2000/svg" xmlns:xlink="http://www.w3.org/1999/xlink" x="0px" y="0px"
	 width="1600px" height="1200px" viewBox="0 0 1600 1200" enable-background="new 0 0 1600 1200" xml:space="preserve">
<g id="XMLID_1630_">
	<g id="XMLID_1353_">
		<path id="XMLID_1811_" fill="#D9083C" d="M1288.128,439.371H1212.5V332.813c0-12.942-10.493-23.438-23.438-23.438H996.875V23.438
			C996.875,10.495,986.382,0,973.438,0h-750C210.493,0,200,10.495,200,23.438v975c0,12.942,10.493,23.438,23.438,23.438H511.37
			c7.98,40.411,39.284,72.516,79.254,81.696v72.991c0,12.942,10.493,23.438,23.438,23.438h493.751
			c12.945,0,23.438-10.495,23.438-23.438v-72.991c46.474-10.673,81.251-52.343,81.251-102.009v-46.566h75.628
			c61.688,0,111.872-50.187,111.872-111.872V551.243C1400,489.558,1349.813,439.371,1288.128,439.371z M1212.5,579.996h46.875
			v234.375H1212.5V579.996z M907.813,398.438c-43.941,0-79.688,35.747-79.688,79.688v78.907c0,23.262-18.926,42.188-42.188,42.188
			s-42.188-18.926-42.188-42.188V356.25h309.375v152.344c0,18.094-14.719,32.813-32.813,32.813S987.5,526.688,987.5,508.594v-30.469
			C987.5,434.184,951.753,398.438,907.813,398.438z M246.875,46.875H950v262.5H532.813c-12.945,0-23.438,10.495-23.438,23.438V975
			h-262.5V46.875z M1084.374,1153.125H637.501v-46.875h446.876v46.875H1084.374z M1165.625,1001.562
			c0,31.88-25.934,57.813-57.813,57.813H614.063c-31.88,0-57.813-25.934-57.813-57.813V356.25h140.625v200.782
			c0,49.109,39.954,89.063,89.063,89.063S875,606.141,875,557.032v-78.907c0-18.094,14.719-32.813,32.813-32.813
			s32.813,14.719,32.813,32.813v30.469c0,43.941,35.747,79.688,79.688,79.688c43.941,0,79.688-35.747,79.688-79.688V356.25h65.625
			v106.559v93.75v281.25v93.75V1001.562z M1353.125,843.122c0,35.841-29.159,64.997-64.997,64.997H1212.5v-46.875h70.313
			c12.945,0,23.438-10.495,23.438-23.438v-281.25c0-12.942-10.493-23.438-23.438-23.438H1212.5v-46.875h75.628
			c35.841,0,64.997,29.156,64.997,64.997V843.122z"/>
		<path id="XMLID_1818_" fill="#D9083C" d="M666.406,140.625h202.343c12.945,0,23.438-10.495,23.438-23.438
			S881.694,93.75,868.749,93.75H666.406c-12.945,0-23.438,10.495-23.438,23.438S653.462,140.625,666.406,140.625z"/>
		<path id="XMLID_1820_" fill="#D9083C" d="M572.68,140.625c12.945,0,23.438-10.495,23.438-23.438S585.624,93.75,572.68,93.75
			h-0.023c-12.945,0-23.426,10.495-23.426,23.438S559.735,140.625,572.68,140.625z"/>
		<path id="XMLID_1821_" fill="#D9083C" d="M572.656,253.125h296.093c12.945,0,23.438-10.495,23.438-23.438
			s-10.493-23.438-23.438-23.438H572.656c-12.945,0-23.438,10.495-23.438,23.438S559.712,253.125,572.656,253.125z"/>
		<path id="XMLID_1825_" fill="#D9083C" d="M448.438,93.75h-112.5c-12.945,0-23.438,10.495-23.438,23.438v112.5
			c0,12.942,10.493,23.438,23.438,23.438h112.5c12.945,0,23.438-10.495,23.438-23.438v-112.5
			C471.875,104.245,461.382,93.75,448.438,93.75z M425,206.25h-65.625v-65.625H425V206.25z"/>
		<path id="XMLID_1827_" fill="#D9083C" d="M664.063,671.566c-12.945,0-23.438,10.495-23.438,23.438v156.949
			c0,12.942,10.493,23.438,23.438,23.438s23.438-10.495,23.438-23.438V695.004C687.5,682.062,677.007,671.566,664.063,671.566z"/>
		<path id="XMLID_1828_" fill="#D9083C" d="M664.063,916.875c-6.164,0-12.211,2.484-16.57,6.867
			c-4.359,4.359-6.867,10.404-6.867,16.57c0,6.164,2.508,12.185,6.867,16.568c4.359,4.359,10.406,6.87,16.57,6.87
			s12.211-2.508,16.57-6.87c4.359-4.357,6.867-10.404,6.867-16.568c0-6.19-2.508-12.211-6.867-16.57
			C676.273,919.359,670.227,916.875,664.063,916.875z"/>
	</g>
</g>
</svg>
