<?xml version="1.0" encoding="utf-8"?>
<!-- Generator: Adobe Illustrator 17.0.0, SVG Export Plug-In . SVG Version: 6.00 Build 0)  -->
<!DOCTYPE svg PUBLIC "-//W3C//DTD SVG 1.1//EN" "http://www.w3.org/Graphics/SVG/1.1/DTD/svg11.dtd">
<svg version="1.1" id="Layer_1" xmlns="http://www.w3.org/2000/svg" xmlns:xlink="http://www.w3.org/1999/xlink" x="0px" y="0px"
	 width="1600px" height="1200px" viewBox="0 0 1600 1200" enable-background="new 0 0 1600 1200" xml:space="preserve">
<g id="XMLID_1357_">
	<g id="XMLID_267_">
		<path id="XMLID_268_" fill="#D9083C" d="M522.71,1059.373c-6.164,0-12.211,2.505-16.57,6.867
			c-4.359,4.359-6.867,10.406-6.867,16.57s2.508,12.211,6.867,16.568c4.359,4.359,10.406,6.87,16.57,6.87s12.211-2.508,16.57-6.87
			c4.359-4.357,6.867-10.404,6.867-16.568s-2.508-12.211-6.867-16.57C534.921,1061.881,528.874,1059.373,522.71,1059.373z"/>
		<path id="XMLID_291_" fill="#D9083C" d="M1392.224,784.327l-107.154-96.26l107.154-96.26c6.197-5.566,8.972-14.002,7.294-22.16
			c-1.678-8.156-7.561-14.81-15.45-17.48l-366.733-123.989c-11.707-25.833-28.094-49.612-48.755-70.263
			c-45.037-45.021-104.901-69.813-168.581-69.813c-0.028,0-0.059,0-0.087,0c-96.358,0.035-179.54,57.539-217.08,140.015
			L215.933,552.17c-7.891,2.667-13.772,9.321-15.45,17.48c-1.678,8.159,1.099,16.594,7.294,22.16l107.154,96.26l-107.154,96.258
			c-6.197,5.566-8.974,14.004-7.294,22.16s7.561,14.81,15.45,17.48l110.629,37.404v163.047c0,10.05,6.408,18.984,15.93,22.205
			l93.358,31.566c2.491,0.839,5.02,1.24,7.509,1.24c9.773,0,18.898-6.164,22.2-15.938c4.146-12.262-2.435-25.563-14.698-29.712
			l-77.426-26.177V877.217l292.492,98.89c2.454,0.83,4.987,1.233,7.505,1.233c5.698,0,11.297-2.079,15.666-6.002l87.462-78.567
			v251.125l-168.815-57.077c-12.27-4.137-25.566,2.435-29.709,14.698c-4.146,12.262,2.435,25.563,14.698,29.712l199.76,67.537
			c2.449,0.827,4.983,1.233,7.505,1.233c2.538,0,5.06-0.422,7.467-1.233c0.014-0.002,0.026,0.002,0.04-0.002l449.999-152.142
			c9.523-3.22,15.93-12.155,15.93-22.205V861.369l110.632-37.404c7.891-2.669,13.772-9.323,15.45-17.48
			C1401.195,798.329,1398.42,789.894,1392.224,784.327z M1013.392,632.814l163.427,55.251l-267.032,90.283
			c9.93-28.244,27.047-54.08,50.013-74.822C982.15,683.335,1000.223,659.265,1013.392,632.814z M1331.07,583.731l-86.543,77.742
			l-214.434-72.497c5.489-20.18,8.358-41.161,8.358-62.423c0-14.602-1.319-28.997-3.87-43.064L1331.07,583.731z M799.931,334.98
			c0.026,0,0.047,0,0.07,0c51.159,0,99.26,19.919,135.44,56.088c18.623,18.616,32.904,40.404,42.417,64.13
			c0.035,0.091,0.07,0.183,0.105,0.274c8.909,22.315,13.613,46.333,13.613,71.083c0,54.08-23.037,105.904-63.199,142.186
			c-37.631,33.991-62.871,78.996-71.758,127.584l-33.183,11.217V619.998c32.688-9.94,56.548-40.355,56.548-76.249
			c0-43.941-35.747-79.687-79.687-79.687c-43.94,0-79.687,35.747-79.687,79.687c0,35.677,23.569,65.951,55.952,76.076V807.54
			l-33.138-11.203c-8.501-48.501-33.539-93.354-71.13-126.996c-40.589-36.321-63.869-88.366-63.869-142.786
			C608.423,420.958,694.331,335.017,799.931,334.98z M800.297,576.561c-18.094,0-32.812-14.719-32.812-32.812
			c0-18.094,14.719-32.812,32.812-32.812c18.094,0,32.812,14.719,32.812,32.812C833.109,561.843,818.39,576.561,800.297,576.561z
			 M641.037,704.277c22.861,20.459,39.823,46.094,49.502,74.182l-267.358-90.391l163.418-55.249
			C599.93,659.591,618.291,683.921,641.037,704.277z M565.458,483.477c-2.562,13.978-3.909,28.373-3.909,43.08
			c0,21.272,2.862,42.251,8.346,62.426l-214.422,72.492l-86.543-77.742L565.458,483.477z M667.966,927.315L268.93,792.402
			l86.543-77.744L754.509,849.57L667.966,927.315z M1226.561,1007.602l-403.124,136.291V892.77l87.462,78.572
			c4.366,3.923,9.968,6.002,15.666,6.002c2.515,0,5.048-0.406,7.505-1.233l292.492-98.892V1007.602z M932.034,927.315
			l-86.543-77.744l399.037-134.913l86.543,77.744L932.034,927.315z"/>
		<path id="XMLID_507_" fill="#D9083C" d="M952.551,285.156c5.998,0,11.998-2.29,16.573-6.865l24.478-24.476
			c36.703-36.703,78.991-66.797,125.69-89.449c11.646-5.648,16.507-19.671,10.859-31.317s-19.669-16.509-31.317-10.859
			c-51.415,24.937-97.973,58.071-138.379,98.479l-24.476,24.476c-9.152,9.152-9.155,23.993,0,33.145
			C940.556,282.869,946.553,285.156,952.551,285.156z"/>
		<path id="XMLID_508_" fill="#D9083C" d="M480.706,164.367c46.701,22.652,88.99,52.746,125.693,89.449l24.476,24.476
			c4.577,4.577,10.575,6.865,16.573,6.865s11.998-2.29,16.573-6.865c9.152-9.152,9.152-23.993,0-33.145l-24.476-24.476
			c-40.409-40.409-86.965-73.54-138.379-98.479c-11.646-5.648-25.666-0.785-31.317,10.859
			C464.199,144.698,469.06,158.718,480.706,164.367z"/>
		<path id="XMLID_509_" fill="#D9083C" d="M799.999,166.718c12.945,0,23.437-10.493,23.437-23.437V23.437
			C823.436,10.493,812.943,0,799.999,0s-23.437,10.493-23.437,23.437v119.84C776.561,156.225,787.054,166.718,799.999,166.718z"/>
	</g>
</g>
</svg>
