<?xml version="1.0" encoding="utf-8"?>
<!-- Generator: Adobe Illustrator 17.0.0, SVG Export Plug-In . SVG Version: 6.00 Build 0)  -->
<!DOCTYPE svg PUBLIC "-//W3C//DTD SVG 1.1//EN" "http://www.w3.org/Graphics/SVG/1.1/DTD/svg11.dtd">
<svg version="1.1" id="Layer_1" xmlns="http://www.w3.org/2000/svg" xmlns:xlink="http://www.w3.org/1999/xlink" x="0px" y="0px"
	 width="1600px" height="1200px" viewBox="0 0 1600 1200" enable-background="new 0 0 1600 1200" xml:space="preserve">
<g id="XMLID_1373_">
	<g id="XMLID_156_">
		<path id="XMLID_157_" fill="#D9083C" d="M965.584,248.44c-0.019,0-0.037,0-0.056,0c-12.907,0-23.531,10.441-23.578,23.355
			c-0.047,12.935,10.535,23.461,23.47,23.522c0.037,0,0.073,0,0.11,0c12.935,0,23.564-10.477,23.58-23.409
			C989.122,258.973,978.519,248.47,965.584,248.44z"/>
		<path id="XMLID_185_" fill="#D9083C" d="M1203.62,926.527C1321.834,848.47,1400,714.452,1400,562.5
			c0-240.377-195.56-435.938-435.938-435.938c-203.895,0-379.488,140.789-424.777,337.5H298.438
			c-54.279,0-98.438,44.159-98.438,98.438s44.159,98.438,98.438,98.438h240.877c21.403,92.541,73.233,176.51,146.916,237.509
			c12.23,10.125,24.97,19.533,38.154,28.202l-106.777,106.776c-9.152,9.152-9.152,23.993,0,33.148
			c4.577,4.577,10.575,6.865,16.573,6.865s11.995-2.287,16.573-6.865l115.584-115.584c60.86,30.933,128.684,47.449,197.726,47.449
			c71.128,0,138.328-17.13,197.705-47.47l115.605,115.605c4.577,4.577,10.575,6.865,16.573,6.865c5.998,0,11.995-2.287,16.573-6.865
			c9.152-9.152,9.152-23.993,0-33.148L1203.62,926.527z M683.155,510.938c0.023,0,0.047,0.005,0.07,0.005
			c0.038,0,0.073-0.005,0.11-0.005h109.634v103.125H373.438V510.938H683.155z M912.308,562.5l-72.464,36.806v-73.615L912.308,562.5z
			 M974.675,583.397c7.868-3.996,12.825-12.073,12.825-20.897s-4.955-16.901-12.825-20.897l-127.877-64.952
			c27.173-37.092,70.54-59.463,117.265-59.463c80.126,0,145.313,65.187,145.313,145.313s-65.187,145.313-145.313,145.313
			c-46.559,0-90.052-22.423-117.239-59.475L974.675,583.397z M246.875,562.5c0-28.432,23.13-51.563,51.563-51.563h28.125v103.125
			h-28.125C270.005,614.063,246.875,590.932,246.875,562.5z M587.579,660.938h78.178
			c42.103,127.678,162.691,215.625,298.308,215.625c173.175,0,314.062-140.888,314.062-314.063
			c0-135.218-86.086-254.916-214.214-297.851c-12.279-4.111-25.559,2.503-29.67,14.777c-4.113,12.274,2.501,25.556,14.775,29.67
			c108.996,36.523,182.231,138.361,182.231,253.404c0,147.328-119.862,267.188-267.188,267.188
			c-110.1,0-208.516-68.145-248.416-168.75h83.346c34.62,57.947,97.399,93.75,165.073,93.75
			c105.973,0,192.187-86.215,192.187-192.188s-86.215-192.188-192.187-192.188c-67.908,0-130.441,35.73-165.075,93.75h-83.402
			c28.5-72.169,87.145-128.745,161.644-154.329c12.244-4.205,18.759-17.538,14.555-29.78c-4.207-12.244-17.545-18.764-29.78-14.552
			c-93.417,32.081-165.642,105.623-196.249,198.663H587.56c44.151-169.999,198.192-290.627,376.502-290.627
			c214.528,0,389.063,174.532,389.063,389.063s-174.534,389.063-389.063,389.063C786.741,951.563,631.794,830.588,587.579,660.938z"
			/>
	</g>
</g>
</svg>
